<svg width="244" height="176" viewBox="0 0 244 176" fill="none" xmlns="http://www.w3.org/2000/svg">
<g style="mix-blend-mode:multiply" opacity="0.5">
<path d="M24.9143 173.714L63.2 4.00001H36.6857V2.28571H105.486L66.6286 173.714H24.9143ZM0 173.714V172H92.1143V173.714H0Z" fill="#343434"/>
<path d="M152.539 176C141.644 176 132.272 173.448 124.424 168.343C116.577 163.238 110.52 156.571 106.253 148.343C101.986 140.038 99.8531 131.086 99.8531 121.486C99.8531 108.305 101.491 95.6952 104.767 83.6571C108.12 71.5429 112.691 60.4191 118.482 50.2857C124.348 40.0762 131.129 31.2381 138.824 23.7714C146.596 16.2286 154.939 10.4 163.853 6.28572C172.767 2.09524 181.948 0 191.396 0C202.215 0 211.548 2.55239 219.396 7.65715C227.32 12.6857 233.377 19.3524 237.567 27.6571C241.834 35.9619 243.967 44.9143 243.967 54.5143C243.967 67.6952 242.329 80.3429 239.053 92.4571C235.777 104.495 231.205 115.619 225.339 125.829C219.472 135.962 212.653 144.8 204.882 152.343C197.186 159.81 188.882 165.638 179.967 169.829C171.053 173.943 161.91 176 152.539 176ZM152.539 174.4C156.577 174.4 160.501 172.381 164.31 168.343C168.12 164.305 171.777 158.857 175.282 152C178.786 145.067 182.024 137.257 184.996 128.571C188.044 119.886 190.786 110.857 193.225 101.486C195.663 92.1143 197.72 82.8952 199.396 73.8286C201.148 64.7619 202.482 56.419 203.396 48.8C204.386 41.1048 204.882 34.7429 204.882 29.7143C204.882 25.6762 204.691 21.981 204.31 18.6286C204.005 15.2 203.358 12.2286 202.367 9.71429C201.453 7.12381 200.082 5.14286 198.253 3.77143C196.501 2.32381 194.215 1.60001 191.396 1.60001C187.282 1.60001 183.32 3.58096 179.51 7.54286C175.701 11.4286 172.044 16.7619 168.539 23.5429C165.034 30.2476 161.758 37.8667 158.71 46.4C155.739 54.9333 153.034 63.8476 150.596 73.1429C148.158 82.4381 146.063 91.6572 144.31 100.8C142.634 109.867 141.301 118.324 140.31 126.171C139.396 134.019 138.939 140.724 138.939 146.286C138.939 150.248 139.091 153.943 139.396 157.371C139.777 160.8 140.424 163.81 141.339 166.4C142.329 168.914 143.701 170.895 145.453 172.343C147.282 173.714 149.644 174.4 152.539 174.4Z" fill="#343434"/>
</g>
</svg>
