<svg width="30" height="30" viewBox="0 0 30 30" fill="none" xmlns="http://www.w3.org/2000/svg">
<g clip-path="url(#clip0_877_2317)">
<path d="M9.58727 5.62503C8.37064 5.29904 7.10075 6.03221 6.77476 7.24883L6.6757 7.61852L8.15447 8.01476L8.25353 7.64507C8.3634 7.23504 8.78101 6.99393 9.19103 7.1038L10.6698 7.50003C11.0798 7.6099 11.3209 8.02751 11.2111 8.43754C11.1012 8.84756 10.6836 9.08867 10.2736 8.9788L8.7948 8.58257L8.39856 10.0613L9.87733 10.4576C10.2874 10.5674 10.5176 11.0257 10.4383 11.3214L10.4186 11.3951C10.3087 11.8051 9.89112 12.0462 9.4811 11.9363L8.00233 11.5401C7.5923 11.4302 7.3512 11.0126 7.46106 10.6026L7.56012 10.2329L6.08135 9.83668L5.98229 10.2064C5.6563 11.423 6.38947 12.6929 7.60609 13.0189L9.08486 13.4151C10.3015 13.7411 11.5714 13.0079 11.8974 11.7913L11.9171 11.7177C12.0655 11.1639 11.9428 10.6111 11.6866 10.1344C12.1501 9.83581 12.5374 9.40284 12.6898 8.83377C13.0158 7.61715 12.2827 6.34726 11.066 6.02126L9.58727 5.62503ZM17.7205 7.80432C15.9784 7.33753 14.1614 8.14325 13.3453 9.709L13.3067 9.78379L13.285 9.86466C13.2388 10.0372 13.1387 10.1163 13.033 10.5107L12.7358 11.6197C12.3547 13.0422 13.2078 14.5199 14.6302 14.901L15.3696 15.0991C16.7921 15.4803 18.2698 14.6271 18.6509 13.2047C19.032 11.7822 18.1789 10.3046 16.7565 9.92342L16.0171 9.7253C15.8017 9.66759 15.5857 9.64715 15.3718 9.64373C15.9105 9.24703 16.6147 9.09297 17.3243 9.28309L18.0637 9.48121L18.4599 8.00244L17.7205 7.80432ZM22.8962 9.19115C21.6796 8.86515 20.4097 9.59832 20.0837 10.8149L19.7865 11.924L19.5884 12.6634L19.2912 13.7725C18.9652 14.9891 19.6984 16.259 20.915 16.585L22.3938 16.9812C23.6104 17.3072 24.8803 16.5741 25.2063 15.3574L25.9988 12.3999L26.0185 12.3262L26.0113 12.3243C26.2878 11.1311 25.5664 9.90663 24.375 9.58738L22.8962 9.19115ZM22.5 10.6699L23.9787 11.0662C24.3888 11.176 24.6299 11.5936 24.52 12.0037L23.7275 14.9612C23.6177 15.3712 23.2 15.6123 22.79 15.5025L21.3113 15.1062C20.9012 14.9964 20.6601 14.5787 20.77 14.1687L21.0672 13.0596L21.2653 12.3203L21.5625 11.2112C21.6723 10.8012 22.0899 10.56 22.5 10.6699ZM15.6208 11.2041L16.3602 11.4022C17.0081 11.5758 17.3457 12.1606 17.1721 12.8084C16.9985 13.4563 16.4137 13.7939 15.7659 13.6203L15.0265 13.4222C14.3786 13.2486 14.041 12.6638 14.2146 12.016C14.3882 11.3681 14.973 11.0305 15.6208 11.2041ZM25.849 17.5975L24.4856 18.2955C24.8157 18.94 24.8907 19.4928 24.757 19.9919C24.4887 20.9929 23.2453 21.8522 21.1342 22.2251C19.0231 22.5979 16.1862 22.4501 13.2169 21.6545C10.2476 20.8589 7.71684 19.5684 6.07501 18.19C4.43318 16.8115 3.78596 15.4456 4.0542 14.4446C4.18694 13.9492 4.52437 13.5114 5.12419 13.12L4.28662 11.8384C3.45549 12.3807 2.82189 13.1285 2.57543 14.0483C2.07775 15.9057 3.22026 17.7922 5.09062 19.3626C6.96098 20.9329 9.66487 22.2877 12.8206 23.1333C15.9764 23.9789 18.9955 24.1575 21.4004 23.7328C23.8054 23.308 25.7381 22.2455 26.2357 20.3881C26.484 19.4616 26.3055 18.4888 25.849 17.5975Z" fill="#FCFCFC"/>
</g>
<defs>
<clipPath id="clip0_877_2317">
<rect width="24" height="24" fill="white" transform="translate(6.33978) scale(1.02062) rotate(15)"/>
</clipPath>
</defs>
</svg>
