<svg width="53" height="20" viewBox="0 0 53 20" fill="none" xmlns="http://www.w3.org/2000/svg">
<path d="M1.30868 19.7592V18.4275H2.55193V19.7592H3.20627V16.7129H2.55193V17.9115H1.30868V16.7129H0.654344V19.7592H1.30868Z" fill="#333333"/>
<path d="M8.9645 16.7129V18.3609C8.9645 18.877 8.94814 19.3431 8.31016 19.3431C7.67218 19.3431 7.65582 18.877 7.65582 18.3609V16.7129H6.98512V18.6273C6.98512 19.4429 7.57403 19.8258 8.31016 19.8258C9.04629 19.8258 9.6352 19.4263 9.6352 18.6273V16.7129H8.9645Z" fill="#333333"/>
<path d="M15.4424 18.6438V19.2597C15.2789 19.3096 15.1153 19.3596 14.8699 19.3596C14.2483 19.3596 13.9865 18.9268 13.9865 18.2443C13.9865 17.5618 14.2319 17.129 14.8045 17.129C15.1971 17.129 15.4261 17.3787 15.4261 17.645H16.0804C16.0804 17.0457 15.557 16.6462 14.7554 16.6462C14.1338 16.6462 13.2831 17.0291 13.2831 18.2276C13.2831 19.4428 14.101 19.809 14.8208 19.809C15.4424 19.809 15.8514 19.6758 16.0804 19.576V18.1277H14.8372V18.6271H15.4424V18.6438Z" fill="#333333"/>
<path d="M45.7711 17.5618C45.7711 16.9459 45.1659 16.613 44.6097 16.613C44.0535 16.613 43.4319 16.9625 43.4319 17.5618C43.4319 17.9946 43.7427 18.2276 44.168 18.3608C44.2989 18.3941 44.5279 18.4773 44.6424 18.5106C45.0514 18.6271 45.1986 18.7437 45.1986 18.9934C45.1986 19.3263 44.8714 19.4428 44.6915 19.4428C44.2007 19.4428 44.0208 19.1598 44.0208 18.8103H43.3664C43.3664 19.4927 43.8572 19.8756 44.6751 19.8756C45.3131 19.8756 45.8857 19.526 45.8857 18.9101C45.8857 18.4274 45.5258 18.1611 45.0677 18.0279C44.9041 17.9779 44.7569 17.9446 44.5933 17.8947C44.2334 17.7782 44.0699 17.6783 44.0699 17.4619C44.0699 17.2455 44.2334 17.0624 44.577 17.0624C44.9369 17.0624 45.1005 17.2954 45.1005 17.5951H45.7711V17.5618Z" fill="#333333"/>
<path d="M52.1837 17.5618C52.1837 16.9459 51.5784 16.613 51.0222 16.613C50.466 16.613 49.8444 16.9625 49.8444 17.5618C49.8444 17.9946 50.1552 18.2276 50.5805 18.3608C50.7114 18.3941 50.9404 18.4773 51.0549 18.5106C51.4639 18.6271 51.6111 18.7437 51.6111 18.9934C51.6111 19.3263 51.2839 19.4428 51.104 19.4428C50.6132 19.4428 50.4333 19.1598 50.4333 18.8103H49.779C49.779 19.4927 50.2697 19.8756 51.0876 19.8756C51.7256 19.8756 52.2982 19.526 52.2982 18.9101C52.2982 18.4274 51.9383 18.1611 51.4802 18.0279C51.3167 17.9779 51.1694 17.9446 51.0058 17.8947C50.646 17.7782 50.4824 17.6783 50.4824 17.4619C50.4824 17.2455 50.646 17.0624 50.9895 17.0624C51.3494 17.0624 51.513 17.2954 51.513 17.5951H52.1837V17.5618Z" fill="#333333"/>
<path d="M21.2825 19.859C22.313 19.859 22.7711 19.1598 22.7711 18.2443C22.7711 17.3288 22.313 16.6296 21.2825 16.6296C20.2519 16.6296 19.7938 17.3288 19.7938 18.2443C19.7938 19.1598 20.2519 19.859 21.2825 19.859ZM21.2825 17.0957C21.9368 17.0957 22.0677 17.695 22.0677 18.2277C22.0677 18.7603 21.9368 19.3596 21.2825 19.3596C20.6281 19.3596 20.4973 18.7603 20.4973 18.2277C20.4973 17.7116 20.6281 17.0957 21.2825 17.0957Z" fill="#333333"/>
<path d="M31.6047 19.7924C32.2099 19.7924 32.7661 19.4928 32.7661 18.9268C32.7661 18.4607 32.4062 18.1944 32.0464 18.1611C32.2917 18.1278 32.6189 17.8614 32.6189 17.4786C32.6189 16.9292 32.2099 16.6796 31.572 16.6796H30.2469V19.7924H31.6047ZM30.9013 19.3097V18.4108H31.4902C31.7846 18.4108 32.03 18.494 32.03 18.8436C32.03 19.1765 31.7683 19.293 31.4902 19.293H30.9013V19.3097ZM30.9013 17.9613V17.1623H31.5065C31.7683 17.1623 31.9318 17.3454 31.9318 17.5618C31.9318 17.7949 31.7192 17.9447 31.4738 17.9447H30.9013V17.9613Z" fill="#333333"/>
<path d="M38.0499 19.8756C39.0805 19.8756 39.5549 19.1598 39.5549 18.2443C39.5549 17.3121 39.0805 16.613 38.0499 16.613C37.0193 16.613 36.5449 17.3287 36.5449 18.2443C36.5449 19.1598 37.0193 19.8756 38.0499 19.8756ZM38.0499 17.079C38.7206 17.079 38.8515 17.6783 38.8515 18.2276C38.8515 18.777 38.7206 19.3762 38.0499 19.3762C37.3792 19.3762 37.2483 18.777 37.2483 18.2276C37.2483 17.695 37.3792 17.079 38.0499 17.079Z" fill="#333333"/>
<path d="M40.7981 9.58828C40.929 11.153 40.2583 14.0828 35.8906 14.2659C33.9603 14.3491 31.5392 13.7332 30.574 13.2837V9.52169H31.0484C31.1466 9.98779 32.0627 13.4669 35.2526 13.6333C37.1011 13.7165 38.5079 12.9342 38.5406 11.3694C38.5897 9.55499 36.6103 8.92243 34.8273 8.20664C32.8152 7.39098 30.8685 6.57531 30.5904 4.36136C30.2959 1.76455 32.6352 4.94045e-05 35.3344 0.116573C36.823 0.183158 38.3116 0.549375 39.4567 1.01547V4.1949H38.9823C38.7042 2.46369 37.69 0.832361 35.3671 0.682545C34.0093 0.599314 32.7824 1.11535 32.7824 2.61351C32.7824 4.11167 35.2362 4.72758 37.0193 5.44337C38.8187 6.1758 40.5855 7.17457 40.7981 9.58828Z" fill="#333333"/>
<path d="M52.9852 9.58828C53.1161 11.153 52.4454 14.0828 48.0777 14.2659C46.1474 14.3491 43.7263 13.7332 42.7612 13.2837V9.52169H43.2356C43.3337 9.98779 44.2498 13.4669 47.4397 13.6333C49.2882 13.7165 50.6951 12.9342 50.7278 11.3694C50.7769 9.55499 48.7975 8.92243 47.0144 8.20664C45.0023 7.39098 43.0556 6.57531 42.7939 4.36136C42.4831 1.76455 44.8224 4.94045e-05 47.5215 0.116573C49.0101 0.183158 50.4988 0.549375 51.6439 1.01547V4.1949H51.1695C50.8914 2.46369 49.8771 0.832361 47.5542 0.682545C46.1965 0.599314 44.9696 1.11535 44.9696 2.61351C44.9696 4.11167 47.4234 4.72758 49.2064 5.44337C51.0059 6.1758 52.7726 7.17457 52.9852 9.58828Z" fill="#333333"/>
<path d="M14.3137 7.22447C14.3137 3.22937 17.4873 0 21.4133 0C25.3394 0 28.5129 3.22937 28.5129 7.22447C28.5129 11.2196 25.3394 14.4489 21.4133 14.4489C17.4873 14.4489 14.3137 11.2029 14.3137 7.22447ZM21.4133 13.833C24.1943 13.7997 25.1594 10.1875 25.1594 7.20782C25.1594 4.2115 23.9489 0.565972 21.4133 0.565972C18.7469 0.549326 17.6672 4.22814 17.6672 7.20782C17.6672 10.1875 18.6324 13.8663 21.4133 13.833Z" fill="#333333"/>
<path d="M1.21053 12.9341C1.21053 13.3336 0.752492 13.5334 0.32717 13.5334H0V14.0494H7.23047C9.7824 14.0494 12.4979 12.8509 12.5306 10.1875C12.5633 7.14122 9.5043 6.60854 8.53915 6.52531C10.0441 6.27562 11.8272 4.99386 11.7454 3.16277C11.6473 1.21516 9.61881 0.299621 7.70486 0.299621L0.0817926 0.316267V0.8323H0.474397C0.768851 0.8323 1.22689 0.915531 1.22689 1.34833V12.9341H1.21053ZM4.30229 13.4834V6.89153H6.08537C8.09747 6.89153 9.14441 8.33975 9.22621 9.98773C9.34072 11.952 7.90117 13.4834 6.08537 13.4834H4.30229ZM4.30229 6.35885V0.8323H5.80728C7.27954 0.8323 8.49007 1.78114 8.55551 3.4957C8.62094 5.12703 7.41041 6.35885 5.88907 6.35885H4.30229Z" fill="#333333"/>
</svg>
