<svg width="99" height="8" viewBox="0 0 99 8" fill="none" xmlns="http://www.w3.org/2000/svg">
<path fill-rule="evenodd" clip-rule="evenodd" d="M0 6.90184H1.32515V0.276074H0V0C1.60123 0 3.09202 0 4.69325 0C5.68712 0 6.90184 0.0552147 7.78527 0.386503C8.39264 0.662577 8.72392 1.21472 8.72392 1.76687C8.72392 2.31902 8.39264 2.59509 7.8957 2.98159C7.61963 3.14724 7.45399 3.20245 7.06748 3.31288C7.61963 3.3681 8.00613 3.47853 8.55828 3.80982C9.11043 4.19632 9.3865 4.74847 9.3865 5.2454C9.3865 5.85276 8.94478 6.46012 8.17178 6.68098C7.01227 7.1227 5.68712 7.1227 4.41718 7.1227H0V6.90184ZM3.53374 6.90184H4.47239C5.30061 6.90184 5.90797 6.7362 6.40491 6.57055C6.84662 6.34969 7.23313 5.96319 7.23313 5.2454C7.23313 4.41718 7.01227 3.80982 6.07362 3.53374C5.6319 3.42331 3.47853 3.47853 3.47853 3.47853V6.90184H3.53374ZM3.53374 3.14724C4.52761 3.14724 5.6319 3.20245 6.0184 3.03681C6.62577 2.76074 6.84662 2.48466 6.84662 1.71166C6.84662 1.04908 6.62577 0.717791 6.23926 0.552147C5.79755 0.331288 5.02454 0.276074 4.30675 0.276074H3.53374V3.14724ZM37.8221 6.90184H39.1472V0.276074H37.8221V0C39.4233 0 40.9693 0 42.5153 0C43.5092 0 44.7239 0.0552147 45.6074 0.386503C46.2699 0.662577 46.546 1.21472 46.546 1.76687C46.546 2.31902 46.2147 2.59509 45.7178 2.98159C45.4417 3.14724 45.2761 3.20245 44.8896 3.31288C45.4417 3.3681 45.8282 3.47853 46.4356 3.80982C46.9877 4.19632 47.2086 4.74847 47.2086 5.2454C47.2086 5.85276 46.7669 6.46012 46.0491 6.68098C44.8896 7.1227 43.5092 7.1227 42.2945 7.1227H37.8221V6.90184ZM41.411 6.90184H42.3497C43.1779 6.90184 43.7853 6.7362 44.2822 6.57055C44.7239 6.34969 45.1104 5.96319 45.1104 5.2454C45.1104 4.41718 44.9448 3.80982 43.9509 3.53374C43.5092 3.42331 41.411 3.47853 41.411 3.47853V6.90184ZM41.411 3.14724C42.4049 3.14724 43.454 3.20245 43.8957 3.03681C44.5031 2.76074 44.7239 2.48466 44.7239 1.71166C44.7239 1.04908 44.4478 0.717791 44.0613 0.496932C43.6196 0.276074 42.8466 0.220859 42.1288 0.220859H41.411V3.14724ZM12.9755 5.35583V0.276074H11.4847V0H16.454V0.276074H15.0184V5.30061C15.0184 5.79755 15.2393 6.12883 15.681 6.40491C16.0675 6.7362 16.5644 6.90184 17.5031 6.90184C18.6074 6.90184 19.4356 6.68098 19.8773 6.23926C20.3742 5.85276 20.5951 5.35583 20.5951 4.8589V0.276074H19.1595V0H22.638V0.276074H21.2025V4.91411C21.2025 5.6319 20.8712 6.23926 20.2638 6.68098C19.546 7.1227 18.8282 7.34356 17.5583 7.34356C16.3436 7.34356 14.9632 7.17791 14.1902 6.84663C13.362 6.51534 12.9755 6.0184 12.9755 5.35583ZM26.1166 6.90184V0.276074H24.681V0H30.2024C31.4172 0.0552147 32.0245 0 32.8528 0.331288C33.4049 0.552147 33.7914 1.04908 33.7914 1.71166C33.7914 3.09202 32.5215 3.25767 31.638 3.42331C32.411 3.47853 32.8528 3.58896 33.3497 3.80982C33.8466 4.08589 34.0675 4.52761 34.1779 4.74847C34.2883 5.13497 34.2331 5.57669 34.2331 5.96319C34.2883 6.68098 34.6748 6.95705 35.2822 6.90184C35.4478 6.84663 35.6135 6.79141 35.7239 6.68098L35.8896 7.01227C35.5031 7.28834 35.0613 7.39877 34.6196 7.34356C33.9018 7.34356 33.2945 7.23313 32.8528 6.95705C32.411 6.68098 32.135 6.29448 32.0245 5.74233C32.0245 5.30061 32.0245 4.8589 31.9141 4.41718C31.638 3.69939 30.6994 3.58896 30.092 3.58896H28.3251V6.95705H29.8159V7.17791H24.5705V6.90184H26.1166ZM28.2699 3.20245H30.2024C31.1411 3.20245 31.6932 2.81595 31.6932 1.65644C31.6932 0.717791 30.9202 0.220859 30.092 0.220859H28.2699V3.20245ZM76.9141 6.90184V0.276074H75.4785V0H81C82.2147 0.0552147 82.8221 0 83.5951 0.331288C84.2024 0.552147 84.5889 1.04908 84.5889 1.71166C84.5889 3.09202 83.319 3.25767 82.3804 3.42331C83.2086 3.47853 83.5951 3.58896 84.092 3.80982C84.6442 4.08589 84.865 4.52761 84.9202 4.74847C85.0859 5.13497 85.0307 5.57669 85.0307 5.96319C85.0859 6.68098 85.4724 6.95705 86.0797 6.90184C86.2454 6.84663 86.411 6.79141 86.5215 6.68098L86.6871 7.01227C86.3558 7.28834 85.8589 7.39877 85.4172 7.34356C84.6994 7.34356 84.1472 7.23313 83.7055 6.95705C83.2638 6.68098 82.9325 6.29448 82.8773 5.74233C82.8221 5.30061 82.8221 4.8589 82.6564 4.41718C82.4356 3.69939 81.4417 3.58896 80.8343 3.58896H79.1227V6.95705H80.6135V7.17791H75.3681V6.90184H76.9141ZM79.0675 3.20245H80.9448C81.8834 3.20245 82.4908 2.81595 82.4908 1.65644C82.4908 0.717791 81.7178 0.220859 80.8896 0.220859H79.0675V3.20245ZM63.773 6.90184V0.276074H62.3374V0H67.8589C69.0736 0.0552147 69.681 0 70.5092 0.331288C71.0613 0.552147 71.5031 1.04908 71.5031 1.71166C71.5031 3.09202 70.2331 3.25767 69.2945 3.42331C70.0675 3.47853 70.5092 3.58896 71.0061 3.80982C71.5031 4.08589 71.7239 4.52761 71.8343 4.74847C72 5.13497 71.8896 5.57669 71.8896 5.96319C71.9448 6.68098 72.3313 6.95705 72.9386 6.90184C73.1043 6.84663 73.2699 6.79141 73.3804 6.68098L73.546 7.01227C73.2147 7.28834 72.7178 7.39877 72.2761 7.34356C71.5583 7.34356 70.9509 7.23313 70.5092 6.95705C70.0675 6.68098 69.7914 6.29448 69.681 5.74233C69.6258 5.30061 69.6258 4.8589 69.5153 4.41718C69.2393 3.69939 68.3006 3.58896 67.6932 3.58896H65.9264V6.95705H67.4724V7.17791H62.227V6.90184H63.773ZM65.9816 3.20245H67.9141C68.8527 3.20245 69.4049 2.81595 69.4049 1.65644C69.4049 0.717791 68.6319 0.220859 67.8037 0.220859H65.9816V3.20245ZM49.6932 6.90184H51.1288V0.276074H49.6932V0H58.8037V2.15337H58.4724C58.3067 1.60123 57.9202 0.828221 57.4785 0.552147C57.1472 0.386503 56.6503 0.276074 55.8221 0.276074H53.3374V3.31288C53.8896 3.31288 54.6626 3.3681 55.1595 3.14724C55.546 2.98159 55.8221 2.53988 55.8773 2.09816H56.2638V4.96933H55.8773C55.8221 4.41718 55.4908 4.08589 55.1043 3.92024C54.7178 3.7546 54 3.7546 53.2822 3.7546V6.95705H56.0429C57.2577 6.95705 57.6442 6.79141 58.1411 6.51534C58.5828 6.18405 58.9693 5.46626 59.0797 4.74847H59.411V7.17791H49.6932V6.90184ZM90.3313 6.90184H92.0429V3.80982L88.6748 0.276074H87.2392V0H92.7607V0.276074H91.1043L93.9202 3.42331L96.8466 0.276074H94.9141V0H99V0.276074H97.454L94.2515 3.80982V6.90184H95.9632V7.17791H90.4417V6.90184H90.3313Z" fill="#333333"/>
</svg>
