<svg width="73" height="21" viewBox="0 0 73 21" fill="none" xmlns="http://www.w3.org/2000/svg">
<path fill-rule="evenodd" clip-rule="evenodd" d="M50.4394 8.35116C50.0654 8.35116 49.7746 8.14342 49.7746 7.76949C49.7746 7.18782 50.3563 6.43995 50.9379 6.43995C51.3119 6.43995 51.4781 6.77234 51.4781 7.10472C51.5196 7.72794 51.1041 8.35116 50.4394 8.35116Z" fill="#333333"/>
<path fill-rule="evenodd" clip-rule="evenodd" d="M13.42 16.7023C11.1349 18.3227 7.93569 20.2339 5.06887 20.2339C2.11895 20.2339 0 18.2396 0 15.2897C0 13.6693 0.623221 12.0905 1.32954 10.6778C2.70063 7.93567 4.73648 5.44279 7.10472 3.49005C8.93284 1.99433 11.1349 0.830962 13.4616 0.249278C14.0848 0.0830759 14.7496 0 15.3728 0C16.2038 0 17.0763 0.124665 17.8241 0.498557L18.9044 1.08024C19.1121 1.2049 19.3614 1.2049 19.5691 1.2049C20.3586 1.2049 21.0233 0.747886 21.6466 0.290816L21.8958 0.581683C20.4417 1.53726 19.8184 2.57596 19.2368 4.19635L18.9875 4.03014C19.1121 3.65625 19.1952 3.32385 19.1952 2.9499C19.1952 1.12178 16.9101 0.249278 15.3312 0.249278C14.1679 0.249278 13.0045 0.623221 11.9658 1.12178C8.22652 2.9499 5.23506 6.27375 3.40695 10.0131C2.53444 11.7997 1.86966 13.7939 1.86966 15.8298C1.86966 18.1981 3.19921 19.8184 5.60899 19.8184C8.19294 19.8184 11.13 17.896 13.2764 16.4911L13.4616 16.37C13.794 15.5805 14.1679 14.8742 14.708 14.2094C16.3284 12.0905 18.9044 9.93 21.6881 9.93C23.1423 9.93 23.8486 10.6363 23.8901 12.0489L24.8457 10.4286H26.5908L22.4775 17.6164L22.4319 17.707C22.2756 18.016 22.1036 18.3563 22.1036 18.6966C22.1036 19.1121 22.5191 19.3614 22.9345 19.3614C23.9259 19.3614 24.9928 18.5289 25.7382 17.9472L25.8429 17.8657C27.7957 16.37 29.5822 14.6249 30.7456 12.4229L31.8674 10.387H33.737L33.2385 11.3011C34.1525 10.761 35.2328 10.3039 36.313 10.3039C36.9363 10.3039 37.5179 10.5948 37.5179 11.2595C37.5179 11.7581 37.2686 12.132 36.8947 12.4644C36.9778 12.506 37.0193 12.5475 37.1024 12.5475C37.4165 12.5475 37.6934 12.3621 37.9333 12.2015L37.975 12.1736C39.5538 11.1764 41.008 9.80534 41.922 8.22654L43.21 6.02447H44.955L42.753 9.88846H45.3289L45.2043 10.2208H42.6283L38.3073 17.6995C38.1411 17.9903 37.975 18.3227 37.975 18.6551C37.975 19.0706 38.4735 19.2783 38.8475 19.2783C39.6188 19.2783 40.3108 18.8023 40.9622 18.3541L41.008 18.3227C42.1713 17.4917 43.2515 16.453 44.2487 15.4559C44.9966 14.708 45.7029 13.9601 46.3261 13.1292C46.6585 12.6722 46.9493 12.2151 47.2402 11.7581L48.0296 10.4701H49.7331L45.4951 17.9487C45.3289 18.1981 45.2459 18.5304 45.2459 18.8213C45.2459 19.1537 45.4951 19.4445 45.8275 19.4445C46.8247 19.4445 47.9465 18.6136 48.6944 17.9487L51.7689 15.2481C53.4724 13.2538 56.2561 10.0962 59.1229 10.0962C60.037 10.0962 61.0757 10.5532 61.0757 11.5919C61.0757 12.3813 60.5356 13.1292 60.037 13.6693C58.9152 14.8742 57.2533 15.5805 55.716 15.996C54.9266 16.2038 54.1371 16.2453 53.3477 16.2453C53.0984 16.827 52.8492 17.4087 52.8492 18.0319C52.8492 18.9044 53.6386 19.6523 54.5111 19.6523C56.63 19.6523 59.7461 17.4502 61.2834 16.2453C62.5714 15.2066 63.7763 14.0017 64.8565 12.7552C64.9186 12.6807 64.9817 12.6062 65.0449 12.5314C65.4049 12.1058 65.7725 11.6712 66.0199 11.1764L66.4354 10.4286H68.1804L66.9339 12.8384C68.3051 11.5919 69.967 10.3455 71.8782 10.3455C72.5014 10.3455 73 10.7194 73 11.3842C73 11.9659 72.4599 12.6722 71.8366 12.6722C71.5042 12.6722 71.1719 12.3398 71.1719 12.0074C71.1719 11.4673 71.7535 11.0933 72.2521 11.0933C72.3352 11.0933 72.4599 11.0933 72.5429 11.1349C72.3768 10.8025 72.1275 10.6363 71.7535 10.6363C70.8395 10.6363 69.967 11.0933 69.2191 11.5088C67.5156 12.506 66.2277 14.0848 65.2305 15.7467L62.7376 19.9846H60.951L64.9812 13.0461C64.1087 14.0848 63.1946 15.0404 62.1559 15.9129C60.9926 16.91 59.7461 17.7826 58.4582 18.572C57.1286 19.3614 55.5913 20.1093 54.0125 20.1093C52.4752 20.1093 51.0626 19.2368 51.0626 17.5749C51.0626 17.1121 51.17 16.6851 51.2851 16.2274L51.3119 16.1207C51.1796 16.2426 51.042 16.3708 50.8997 16.5036C49.3431 17.9551 47.2114 19.9431 45.0797 19.9431C44.2072 19.9431 43.5008 19.6523 43.5008 18.6966C43.5008 18.1634 43.805 17.6606 44.075 17.2142C44.1206 17.1389 44.1652 17.0651 44.2072 16.9932L45.6198 14.5003C44.2072 16.0375 42.753 17.5333 41.0495 18.6966C40.0939 19.3614 39.0137 19.9846 37.8503 19.9846C37.1024 19.9846 36.313 19.5276 36.313 18.6966C36.313 18.0862 36.6544 17.5068 36.9616 16.9853C36.988 16.9406 37.0141 16.8963 37.0397 16.8524C37.061 16.8159 37.0819 16.7798 37.1024 16.7439L40.7171 10.387C40.0524 11.0102 39.3876 11.5919 38.6813 12.132C38.6296 12.1699 38.5773 12.2086 38.5245 12.2478L38.5198 12.2513C37.9365 12.6841 37.2808 13.1707 36.5208 13.1707C36.0222 13.1707 35.6067 12.8799 35.6067 12.3398C35.6067 11.7997 36.0637 11.3842 36.6039 11.3842C36.7701 11.3842 36.8947 11.4257 37.0193 11.5088C37.0609 11.4257 37.1024 11.3011 37.1024 11.1764C37.1024 10.8025 36.6454 10.5948 36.3546 10.5948C35.4405 10.5948 34.4849 11.0518 33.737 11.4673C32.9892 11.9243 32.4906 12.6722 32.0751 13.42L28.2942 19.9846H26.4661L29.1668 15.2897C27.3802 17.2009 24.4303 20.0262 21.6881 20.0262C20.9402 20.0262 20.2755 19.6523 20.2755 18.8628C20.2755 18.3642 20.4832 17.9072 20.6909 17.4502C19.403 18.8213 17.6164 20.2339 15.6221 20.2339C14.3341 20.2339 13.2123 19.3199 13.2123 17.9903C13.1707 17.5333 13.2954 17.1178 13.42 16.7023ZM23.5993 11.7165C23.5993 10.761 22.8514 10.1793 21.9374 10.1793C20.8987 10.1793 20.0677 10.6778 19.2783 11.2595C17.6579 12.4229 16.2869 14.0848 15.4143 15.8713C15.082 16.5362 14.7911 17.2009 14.7911 17.9903C14.7911 18.8213 15.2897 19.6107 16.2038 19.6107C18.3227 19.6107 20.5663 17.2425 21.8127 15.6221C22.5606 14.5834 23.5993 13.0046 23.5993 11.7165ZM53.971 15.8713H53.4724L53.5892 15.6762C54.6342 13.9289 56.7524 10.387 58.8321 10.387C59.3307 10.387 59.8708 10.5948 59.8708 11.1349C59.8708 12.132 58.9152 13.3785 58.2089 14.0433C57.1286 15.082 55.5083 15.8713 53.971 15.8713Z" fill="#333333"/>
</svg>
