<svg width="30" height="30" viewBox="0 0 30 30" fill="none" xmlns="http://www.w3.org/2000/svg">
<path d="M22.5001 3C21.3483 3 20.1969 3.43986 19.3184 4.31836L16.0254 7.61133L15.7071 7.29297C15.6139 7.19717 15.5024 7.12103 15.3793 7.06903C15.2562 7.01704 15.1239 6.99024 14.9903 6.99023C14.7914 6.99029 14.597 7.04967 14.4319 7.16078C14.2669 7.27189 14.1388 7.42969 14.064 7.614C13.9891 7.79832 13.9709 8.00077 14.0117 8.19547C14.0525 8.39017 14.1505 8.56828 14.293 8.70703L14.586 9L6.29302 17.293C5.11624 18.4697 4.77935 19.7578 4.52935 20.7578C4.27935 21.7578 4.11624 22.4697 3.29302 23.293C3.10555 23.4805 3.00024 23.7348 3.00024 24C3.00024 24.2652 3.10555 24.5195 3.29302 24.707L5.29302 26.707C5.48056 26.8945 5.73488 26.9998 6.00005 26.9998C6.26522 26.9998 6.51954 26.8945 6.70708 26.707C7.53031 25.8838 8.24224 25.7207 9.24224 25.4707C10.2422 25.2207 11.5303 24.8838 12.7071 23.707L21.0001 15.4141L21.293 15.707C21.3852 15.803 21.4955 15.8796 21.6177 15.9324C21.7398 15.9852 21.8712 16.0131 22.0043 16.0144C22.1373 16.0158 22.2693 15.9906 22.3925 15.9403C22.5156 15.89 22.6275 15.8156 22.7216 15.7216C22.8157 15.6275 22.8901 15.5156 22.9404 15.3924C22.9906 15.2692 23.0158 15.1373 23.0145 15.0042C23.0131 14.8712 22.9853 14.7397 22.9325 14.6176C22.8797 14.4955 22.8031 14.3851 22.7071 14.293L22.3887 13.9746L25.6817 10.6816C27.4387 8.92464 27.4387 6.07536 25.6817 4.31836C24.8032 3.43986 23.6518 3 22.5001 3ZM16.0001 10.4141L19.586 14L11.293 22.293C10.4698 23.1162 9.75786 23.2793 8.75786 23.5293C7.99139 23.7209 7.05791 24.0861 6.13286 24.7188L5.2813 23.8672C5.91391 22.9421 6.27914 22.0087 6.47075 21.2422C6.72075 20.2422 6.88386 19.5303 7.70708 18.707L16.0001 10.4141Z" fill="black"/>
</svg>
