<svg width="30" height="30" viewBox="0 0 30 30" fill="none" xmlns="http://www.w3.org/2000/svg">
<path d="M8.58597 2C8.32997 2 8.07394 2.09797 7.87894 2.29297L2.29301 7.87891C1.90201 8.26991 1.90201 8.90297 2.29301 9.29297L8.08597 15.0859L9.50004 13.6719L4.4141 8.58594L8.58597 4.41406L9.87894 5.70703L8.58597 7L10 8.41406L11.293 7.12109L12.3789 8.20703L10.293 10.293L11.586 11.5859L15.086 8.08594L13.793 6.79297L9.29301 2.29297C9.09801 2.09797 8.84197 2 8.58597 2ZM23.8262 3C23.315 3.0005 22.8026 3.19739 22.4121 3.58789L21 5L25 9L26.4121 7.58789C27.1931 6.80689 27.1951 5.54272 26.4141 4.76172L25.2383 3.58594C24.8478 3.19544 24.3375 2.9995 23.8262 3ZM19 7L5.23051 20.7695L6.50004 21.5L7.00004 23L8.50004 23.5L9.23051 24.7695L23 11L19 7ZM21.9141 14.9141L18.4141 18.4141L19.7071 19.707L21.793 17.6211L22.8789 18.707L21.586 20L23 21.4141L24.293 20.1211L25.586 21.4141L21.4141 25.5859L16.3282 20.5L14.9141 21.9141L20.7071 27.707C20.9021 27.902 21.1581 28 21.4141 28C21.6701 28 21.9261 27.902 22.1211 27.707L27.7071 22.1211C28.0981 21.7311 28.0981 21.098 27.7071 20.707L23.2071 16.207L21.9141 14.9141ZM3.89262 23.8926L3.03715 26.3086C3.01234 26.3693 2.99973 26.4344 3.00004 26.5C3.00004 26.6326 3.05272 26.7598 3.14648 26.8536C3.24025 26.9473 3.36743 27 3.50004 27C3.56212 27.0003 3.62372 26.989 3.68168 26.9668L6.10941 26.1094L3.89262 23.8926Z" fill="black"/>
</svg>
