<svg width="49" height="49" viewBox="0 0 49 49" fill="none" xmlns="http://www.w3.org/2000/svg">
<path d="M28.3833 10.0082C20.394 7.86745 12.1489 12.6277 10.0082 20.617C7.86753 28.6062 12.6278 36.8513 20.6171 38.992C28.6063 41.1327 36.8514 36.3724 38.9921 28.3832C41.1328 20.3939 36.3725 12.1489 28.3833 10.0082ZM27.7361 12.4235C34.4199 14.2144 38.3677 21.0522 36.5768 27.736C34.7858 34.4198 27.9481 38.3676 21.2642 36.5767C14.5804 34.7858 10.6326 27.948 12.4236 21.2642C14.2145 14.5803 21.0522 10.6326 27.7361 12.4235ZM17.6845 19.0562L15.7029 20.5831C15.7029 20.5831 17.1513 22.5309 19.6695 23.2057C22.1878 23.8805 24.416 22.9177 24.416 22.9177L23.4634 20.6046C23.4634 20.6046 21.8827 21.21 20.3167 20.7904C18.7507 20.3708 17.6845 19.0562 17.6845 19.0562ZM27.3458 21.6449L25.3642 23.1718C25.3642 23.1718 26.8125 25.1197 29.3308 25.7944C31.8491 26.4692 34.0773 25.5065 34.0773 25.5065L33.1246 23.1933C33.1246 23.1933 31.544 23.7987 29.978 23.3791C28.4119 22.9595 27.3458 21.6449 27.3458 21.6449ZM23.5294 28.1231C21.0111 27.4483 18.7829 28.4111 18.7829 28.4111L19.7355 30.7242C19.7355 30.7242 21.3162 30.1188 22.8822 30.5384C24.4482 30.958 25.5144 32.2726 25.5144 32.2726L27.496 30.7457C27.496 30.7457 26.0476 28.7978 23.5294 28.1231Z" fill="#E0CFBA"/>
</svg>
