<svg width="24" height="24" viewBox="0 0 24 24" fill="none" xmlns="http://www.w3.org/2000/svg">
<path d="M13.92 2.1748C11.4169 2.1748 9.29813 3.67293 8.28 5.78981C7.73812 5.41668 7.11 5.1448 6.405 5.1448C4.61625 5.1448 3.18937 6.56043 3.09 8.32481C1.30125 8.96981 0 10.6386 0 12.6448C0 15.2023 2.0775 17.2798 4.635 17.2798H8.64C8.8125 17.2817 8.97375 17.1917 9.06187 17.0417C9.14812 16.8917 9.14812 16.7079 9.06187 16.5579C8.97375 16.4079 8.8125 16.3179 8.64 16.3198H4.635C2.595 16.3198 0.96 14.6829 0.96 12.6448C0.96 10.9479 2.10375 9.51918 3.66 9.08981C3.87187 9.02793 4.01437 8.82918 4.005 8.60981C4.00313 8.54231 4.005 8.50856 4.005 8.50481C4.005 7.17168 5.07187 6.1048 6.405 6.1048C7.0725 6.1048 7.68 6.37293 8.115 6.80981C8.22937 6.92043 8.3925 6.96918 8.54813 6.93543C8.70562 6.90168 8.835 6.79293 8.895 6.6448C9.65063 4.6048 11.6119 3.1348 13.92 3.1348C16.8825 3.1348 19.275 5.52918 19.275 8.48981C19.275 8.70918 19.2581 8.92481 19.23 9.14981C19.2131 9.28481 19.2544 9.41981 19.3425 9.52293C19.4306 9.62606 19.56 9.68606 19.695 9.68981H19.725C21.5606 9.68981 23.04 11.1692 23.04 13.0048C23.04 14.8404 21.5606 16.3198 19.725 16.3198H15.36C15.1875 16.3179 15.0262 16.4079 14.9381 16.5579C14.8519 16.7079 14.8519 16.8917 14.9381 17.0417C15.0262 17.1917 15.1875 17.2817 15.36 17.2798H19.725C22.08 17.2798 24 15.3598 24 13.0048C24 10.8204 22.3237 9.08418 20.205 8.83481C20.2125 8.71856 20.235 8.60981 20.235 8.48981C20.235 5.0098 17.4 2.1748 13.92 2.1748ZM11.955 11.9848C11.9344 11.9886 11.9137 11.9942 11.895 11.9998C11.6719 12.0504 11.5144 12.2511 11.52 12.4798V20.9098L9.945 19.3348C9.82875 19.2148 9.65812 19.1642 9.495 19.1998C9.315 19.2317 9.17062 19.3629 9.12 19.5373C9.06938 19.7136 9.12187 19.9011 9.255 20.0248L11.655 22.4248L12 22.7548L12.345 22.4248L14.745 20.0248C14.9362 19.8336 14.9362 19.5261 14.745 19.3348C14.5538 19.1436 14.2463 19.1436 14.055 19.3348L12.48 20.9098V12.4798C12.4856 12.3411 12.4294 12.2079 12.33 12.1142C12.2288 12.0186 12.0919 11.9717 11.955 11.9848Z" fill="white"/>
</svg>
