<svg width="43" height="43" viewBox="0 0 43 43" fill="none" xmlns="http://www.w3.org/2000/svg">
<g clip-path="url(#clip0_877_1996)">
<path d="M22.9333 7.16657C22.1429 6.37609 20.8571 6.37609 20.0667 7.16657L15.7666 11.4666C14.9762 12.2571 14.9762 13.5428 15.7666 14.3333L20.0667 18.6333C20.8571 19.4238 22.1429 19.4238 22.9333 18.6333L27.2334 14.3333C28.0238 13.5428 28.0238 12.2571 27.2334 11.4666L22.9333 7.16657ZM31.5334 15.7666C30.7429 14.9761 29.4572 14.9761 28.6667 15.7666L24.3667 20.0666C23.5762 20.8571 23.5762 22.1428 24.3667 22.9333L28.6667 27.2333C29.4572 28.0238 30.7429 28.0238 31.5334 27.2333L35.8334 22.9333C36.6239 22.1428 36.6239 20.8571 35.8334 20.0666L31.5334 15.7666ZM14.3333 15.7666C13.5428 14.9761 12.2571 14.9761 11.4666 15.7666L7.16662 20.0666C6.37613 20.8571 6.37613 22.1428 7.16662 22.9333L11.4666 27.2333C12.2571 28.0238 13.5428 28.0238 14.3333 27.2333L18.6333 22.9333C19.4238 22.1428 19.4238 20.8571 18.6333 20.0666L14.3333 15.7666ZM22.9333 24.3666C22.1429 23.5761 20.8571 23.5761 20.0667 24.3666L15.7666 28.6666C14.9762 29.4571 14.9762 30.7428 15.7666 31.5333L20.0667 35.8333C20.8571 36.6238 22.1429 36.6238 22.9333 35.8333L27.2334 31.5333C28.0238 30.7428 28.0238 29.4571 27.2334 28.6666L22.9333 24.3666Z" fill="black"/>
</g>
<defs>
<clipPath id="clip0_877_1996">
<rect width="30" height="30" fill="white" transform="translate(21.5) scale(1.01352) rotate(45)"/>
</clipPath>
</defs>
</svg>
