<svg width="98" height="39" viewBox="0 0 98 39" fill="none" xmlns="http://www.w3.org/2000/svg">
<path d="M2.73029 29.4149V38.4815H0V18.4422H13.3424L13.703 20.3482C13.6515 20.3482 13.6515 20.3482 13.5999 20.2967C13.4969 20.2967 13.4454 20.2967 13.4454 20.2452C13.2393 19.9361 12.4666 19.627 11.1787 19.3179C9.83935 19.0088 8.08784 18.8543 5.8727 18.8543H2.73029V28.8997H11.4363V29.3633H2.73029V29.4149Z" fill="black"/>
<path d="M22.8726 32.815C22.8726 32.2998 22.8726 31.7847 22.8726 31.2695C22.8726 30.7029 22.8211 30.1877 22.8211 29.6211C22.6151 30.0847 22.2545 30.3938 21.7393 30.7029C21.2242 30.9604 20.6575 31.218 20.0393 31.4241C19.4211 31.6301 18.7514 31.8362 18.0818 31.9907C17.4121 32.1968 16.7424 32.4029 16.1757 32.712C15.609 33.021 15.1454 33.3816 14.7848 33.8453C14.4242 34.3089 14.2181 34.9271 14.2181 35.6483C14.2181 36.4725 14.4242 37.0392 14.8363 37.4513C15.2484 37.8634 15.8151 38.0695 16.5363 38.0695C17.2575 38.0695 18.1848 37.8634 19.1636 37.3998C20.1939 36.9362 21.3272 36.2665 22.5636 35.3907C22.2545 35.6998 21.8423 36.0604 21.3272 36.4725C20.812 36.8847 20.1939 37.2453 19.5242 37.6059C18.8545 37.9665 18.1848 38.2756 17.5151 38.4816C16.7939 38.7392 16.1757 38.8422 15.609 38.8422C15.1454 38.8422 14.6303 38.7907 14.1666 38.6877C13.703 38.5847 13.2394 38.4301 12.8272 38.1725C12.4151 37.915 12.106 37.6059 11.8485 37.1938C11.5909 36.7816 11.4363 36.215 11.4363 35.5453C11.4363 34.9786 11.5909 34.4635 11.9 34.0513C12.2091 33.6392 12.6212 33.2786 13.1363 32.9695C13.6515 32.6604 14.2697 32.4029 14.9393 32.1968C15.609 31.9907 16.2787 31.7847 16.9999 31.6301C17.7212 31.4241 18.3908 31.2695 19.0605 31.115C19.7302 30.9604 20.3484 30.7544 20.8636 30.5483C21.4302 30.3423 21.8423 30.0847 22.2029 29.8271C22.512 29.518 22.7181 29.2089 22.7696 28.7968C22.6666 28.1786 22.5636 27.612 22.3575 27.0453C22.203 26.4786 21.9454 26.015 21.6363 25.6029C21.3272 25.1908 20.9151 24.8817 20.4514 24.6241C19.9878 24.3665 19.3696 24.315 18.6999 24.315C17.6696 24.3665 16.8969 24.4696 16.3818 24.6756C15.8666 24.8817 15.506 25.1393 15.2484 25.4483C14.9909 25.7574 14.9393 26.0665 14.9393 26.4271C14.9393 26.7877 14.9393 27.0968 14.9393 27.4059C14.9393 27.7665 14.8363 28.0241 14.6303 28.2302C14.4242 28.4362 14.1666 28.4877 13.8575 28.4877C13.5484 28.4877 13.2394 28.3847 12.9303 28.1271C12.6212 27.8696 12.5181 27.5605 12.5181 27.1483C12.5181 26.5817 12.7757 26.0665 13.2394 25.6544C13.703 25.2423 14.3212 24.8817 14.9909 24.6241C15.6606 24.3665 16.3818 24.1605 17.103 24.0574C17.8242 23.9544 18.3908 23.9029 18.8545 23.9029C20.2969 23.9029 21.4817 24.109 22.3575 24.5211C23.2332 24.9332 23.9029 25.4999 24.3666 26.1696C24.8302 26.8393 25.1393 27.6635 25.2938 28.5908C25.4484 29.518 25.4999 30.4453 25.4999 31.4756V38.5331H22.9242V32.815H22.8726Z" fill="black"/>
<path d="M31.1666 37.451C31.4241 37.8117 31.8362 38.0692 32.4029 38.2238C32.9696 38.3783 33.5362 38.4813 34.2059 38.4813C34.8241 38.4813 35.4938 38.4298 36.112 38.2753C36.7817 38.1207 37.3483 37.9147 37.8635 37.6571C38.3786 37.3995 38.8423 37.0904 39.1514 36.6783C39.512 36.3177 39.6665 35.8541 39.6665 35.3389C39.6665 34.7208 39.4089 34.2056 38.8423 33.845C38.2756 33.4844 37.5544 33.1753 36.7302 32.9177C35.9059 32.6602 34.9787 32.4026 33.9999 32.1965C33.0211 31.9905 32.0938 31.6814 31.2696 31.3723C30.4453 31.0117 29.7241 30.5996 29.1575 30.0329C28.5908 29.4662 28.3332 28.745 28.3332 27.8693C28.3332 27.045 28.5393 26.3753 28.9514 25.8602C29.3635 25.345 29.9302 24.9329 30.5484 24.6238C31.2181 24.3147 31.8878 24.1087 32.6605 24.0057C33.4332 23.9026 34.1029 23.8511 34.7726 23.8511C35.0817 23.8511 35.4938 23.9026 36.009 23.9541C36.5241 24.0057 37.0393 24.1602 37.5029 24.3663C37.9665 24.5723 38.4302 24.7784 38.7908 25.0875C39.1514 25.3966 39.3574 25.8087 39.3574 26.2723C39.3574 26.5814 39.2544 26.839 38.9968 27.045C38.7392 27.2511 38.4817 27.3541 38.1726 27.3541C37.7605 27.3541 37.5029 27.2511 37.2968 27.0965C37.0908 26.942 36.9877 26.7359 36.8847 26.4784C36.7817 26.2723 36.7302 26.0147 36.6786 25.7572C36.6271 25.4996 36.5756 25.2935 36.4211 25.139C36.1635 24.8299 35.8544 24.5723 35.5453 24.4693C35.1847 24.3663 34.7726 24.2632 34.309 24.2632C33.7938 24.2632 33.2787 24.3147 32.7635 24.4178C32.1969 24.5208 31.7332 24.6753 31.2696 24.8814C30.806 25.0875 30.4453 25.3966 30.1878 25.7056C29.8787 26.0662 29.7757 26.4784 29.7757 26.942C29.7757 27.4056 29.9302 27.8178 30.2908 28.1268C30.5999 28.4359 31.0635 28.6935 31.5787 28.9511C32.0938 29.1571 32.712 29.3632 33.4332 29.5177C34.1029 29.6723 34.8241 29.8268 35.5453 30.0329C36.2665 30.239 36.9877 30.445 37.6574 30.6511C38.3271 30.8571 38.9453 31.1662 39.512 31.4753C40.0271 31.7844 40.4908 32.1965 40.7998 32.6602C41.1089 33.1238 41.315 33.742 41.315 34.4117C41.315 35.1844 41.1089 35.8541 40.6968 36.4208C40.2847 36.9874 39.7695 37.3995 39.0999 37.7601C38.4302 38.1207 37.7089 38.3783 36.8847 38.5329C36.0605 38.6874 35.1847 38.7904 34.309 38.7904C33.9999 38.7904 33.6908 38.7904 33.2787 38.7389C32.8665 38.6874 32.4544 38.6874 31.9908 38.5844C31.5272 38.5329 31.115 38.4298 30.6514 38.2753C30.1878 38.1723 29.8272 38.0177 29.4666 37.8117C29.106 37.6056 28.8484 37.3995 28.5908 37.142C28.3847 36.8844 28.2817 36.5753 28.2817 36.1632C28.2817 35.8541 28.3847 35.648 28.6423 35.442C28.8999 35.2359 29.1575 35.1329 29.4666 35.1329C29.8787 35.1329 30.1363 35.2359 30.3423 35.3905C30.5484 35.545 30.6514 35.7511 30.7544 36.0086C30.806 36.2662 30.909 36.4723 30.909 36.7298C30.9605 37.0904 31.0635 37.2965 31.1666 37.451Z" fill="black"/>
<path d="M43.2725 18.442L45.8483 17.0511V38.5328H43.2725V18.442ZM46.1574 25.6026C46.3634 25.2935 46.6725 25.0359 46.9816 24.8298C47.2907 24.6238 47.6513 24.4177 48.0634 24.3147C48.4755 24.2117 48.8361 24.0571 49.2483 24.0056C49.6604 23.9541 50.021 23.9026 50.4331 23.9026C51.6179 23.9026 52.5967 24.0571 53.3694 24.3147C54.1422 24.5723 54.8119 24.9844 55.2755 25.448C55.7907 25.9117 56.1513 26.4783 56.4088 27.0965C56.6664 27.7147 56.8725 28.3844 56.9755 29.0541C57.0785 29.7753 57.13 30.445 57.1816 31.2177C57.1816 31.9389 57.1816 32.6601 57.1816 33.3298V38.5328H54.6058V33.0722C54.6058 32.5571 54.6058 32.0419 54.6058 31.4238C54.6058 30.8056 54.5543 30.1874 54.5028 29.5177C54.4513 28.848 54.2967 28.2298 54.1422 27.6117C53.9876 26.9935 53.7301 26.4783 53.421 25.9632C53.1119 25.4995 52.6482 25.0874 52.1331 24.8298C51.6179 24.5208 50.9482 24.3662 50.124 24.3662C49.4543 24.3662 48.9392 24.4177 48.4755 24.5208C48.0119 24.6238 47.6513 24.7268 47.3422 24.8298C47.0331 24.9329 46.7755 25.0874 46.621 25.242C46.4149 25.3965 46.2604 25.4995 46.1574 25.6026Z" fill="black"/>
<path d="M63.0194 23.4394V38.4817H60.4436V24.8303L63.0194 23.4394Z" fill="black"/>
<path d="M59.7376 19.0084C59.3315 19.2218 58.3284 19.3167 58.3284 19.3167V19.6962C58.3284 19.6962 59.3315 19.7911 59.7376 20.0046C60.1197 20.218 60.4541 20.5026 60.6929 20.8821C60.9556 21.2616 61.1228 21.6886 61.2423 22.1867C61.3617 22.6848 61.4094 23.1141 61.4094 23.1141H61.7438C61.7438 23.1141 61.8617 22.4332 61.911 22.1867C62.0304 21.6886 62.2215 21.2616 62.4603 20.8821C62.6992 20.5026 63.0097 20.218 63.4157 20.0046C63.8217 19.7911 64.8248 19.6962 64.8248 19.6962V19.3167C64.8248 19.3167 63.8217 19.2218 63.4157 19.0084C63.0335 18.7949 62.6992 18.5103 62.4603 18.1308C62.1976 17.7513 62.0304 17.3243 61.911 16.8262C61.8562 16.5326 61.7438 15.7846 61.7438 15.7846H61.4094C61.4094 15.7846 61.2984 16.6365 61.2423 16.8262C61.1228 17.3243 60.9318 17.7513 60.6929 18.1308C60.4541 18.5103 60.1436 18.7949 59.7376 19.0084Z" fill="black"/>
<path d="M66.1177 31.3723C66.1177 30.3935 66.2722 29.4662 66.5813 28.539C66.8904 27.6117 67.4056 26.839 68.0753 26.1178C68.745 25.3966 69.5692 24.8814 70.548 24.4693C71.5268 24.0572 72.7116 23.8511 74.051 23.8511C75.3904 23.8511 76.5752 24.0572 77.554 24.4693C78.5328 24.8814 79.357 25.4481 80.0267 26.1693C80.6964 26.8905 81.1601 27.6632 81.4691 28.5905C81.7782 29.4662 81.9328 30.445 81.9328 31.3723C81.9328 32.3511 81.7782 33.2783 81.4691 34.2056C81.1601 35.1329 80.6449 35.9056 79.9752 36.6268C79.3055 37.348 78.4813 37.8632 77.5025 38.2753C76.5237 38.6874 75.3389 38.8935 74.051 38.8935C72.7631 38.8935 71.5268 38.6874 70.548 38.2753C69.5692 37.8632 68.745 37.2965 68.0753 36.5753C67.4056 35.8541 66.9419 35.0814 66.5813 34.1541C66.2722 33.2783 66.1177 32.3511 66.1177 31.3723ZM72.7116 24.4693C71.8359 24.4693 71.1146 24.6753 70.548 25.0875C69.9813 25.4996 69.5177 26.0147 69.2086 26.6329C68.8995 27.2511 68.745 28.0238 68.6419 28.8481C68.5904 29.6723 68.6419 30.548 68.7965 31.4238C68.951 32.2996 69.2086 33.1238 69.6207 33.9995C69.9813 34.8238 70.4449 35.545 71.0116 36.2147C71.5783 36.8329 72.1965 37.3995 72.9177 37.7601C73.6389 38.1723 74.4116 38.3783 75.2874 38.3783C76.1631 38.3783 76.8328 38.1723 77.3995 37.7601C77.9661 37.348 78.3782 36.8329 78.6873 36.2147C78.9964 35.5965 79.151 34.8238 79.254 33.9995C79.3055 33.1753 79.254 32.2996 79.0995 31.4238C78.9449 30.548 78.6358 29.7238 78.2752 28.8481C77.9146 28.0238 77.451 27.3026 76.8843 26.6329C76.3177 26.0147 75.6995 25.4481 74.9783 25.0875C74.2571 24.7269 73.5874 24.4693 72.7116 24.4693Z" fill="black"/>
<path d="M84.1425 24.8301L86.7182 23.4392V38.4816H84.1425V24.8301ZM86.9758 25.6028C87.1819 25.2937 87.4909 25.0362 87.8 24.8301C88.1091 24.6241 88.4697 24.418 88.8818 24.315C89.294 24.2119 89.6546 24.0574 90.0667 24.0059C90.4788 23.9544 90.8394 23.9028 91.2515 23.9028C92.4364 23.9028 93.4152 24.0574 94.1879 24.315C94.9606 24.5725 95.6303 24.9847 96.0939 25.4483C96.6091 25.9119 96.9697 26.4786 97.2273 27.0968C97.4848 27.7149 97.6909 28.3846 97.7939 29.0543C97.897 29.7755 97.9485 30.4452 98 31.218C98 31.9392 98 32.6604 98 33.3301V38.5331H95.4242V33.0725C95.4242 32.5574 95.4242 32.0422 95.4242 31.424C95.4242 30.8058 95.3727 30.1877 95.3212 29.518C95.2697 28.8483 95.1152 28.2301 94.9606 27.6119C94.8061 26.9937 94.5485 26.4786 94.2394 25.9634C93.9303 25.4998 93.4667 25.0877 92.9515 24.8301C92.4364 24.521 91.7667 24.3665 90.9424 24.3665C90.2727 24.3665 89.7576 24.418 89.294 24.521C88.8303 24.6241 88.4697 24.7271 88.1606 24.8301C87.8515 24.9331 87.594 25.0877 87.4394 25.2422C87.2334 25.3968 87.0788 25.4998 86.9758 25.6028Z" fill="black"/>
<path d="M28.1208 0C30.1814 0 31.9844 0.30909 33.5298 0.875754C35.0753 1.49393 36.3632 2.26666 37.3935 3.24544C38.4238 4.22422 39.1965 5.30604 39.7116 6.59391C40.2268 7.83027 40.4844 9.11814 40.4844 10.4575C40.4844 11.7454 40.2268 13.0333 39.7116 14.2696C39.1965 15.506 38.4238 16.6393 37.3935 17.6181C36.3632 18.5969 35.0753 19.3696 33.5298 19.9878C31.9844 20.606 30.1814 20.9151 28.1208 20.9151C26.0602 20.9151 24.2572 20.606 22.7117 19.9878C21.1663 19.3696 19.8784 18.5969 18.8481 17.6181C17.8178 16.6393 17.0451 15.506 16.5299 14.2696C16.0148 13.0333 15.7572 11.7454 15.7572 10.4575C15.7572 9.11814 16.0148 7.88178 16.5299 6.59391C17.0451 5.35755 17.8178 4.22422 18.8481 3.24544C19.8784 2.26666 21.1663 1.49393 22.7117 0.875754C24.2572 0.30909 26.0602 0 28.1208 0ZM29.6662 20.2454C31.2117 20.2454 32.5511 19.9878 33.6329 19.4211C34.7147 18.8545 35.5904 18.1333 36.2601 17.206C36.9298 16.2787 37.3419 15.2484 37.548 14.0636C37.7541 12.8787 37.7541 11.6939 37.5995 10.4575C37.3935 9.22117 37.0329 8.03633 36.4147 6.85148C35.7965 5.66664 35.0753 4.63634 34.148 3.70907C33.2208 2.78181 32.1389 2.0606 30.8511 1.49393C29.5632 0.927269 28.1723 0.669694 26.6268 0.669694C25.0299 0.669694 23.6905 0.927269 22.6087 1.49393C21.5269 2.0606 20.6511 2.78181 20.0329 3.70907C19.3632 4.63634 18.9511 5.66664 18.7451 6.85148C18.539 8.03633 18.539 9.22117 18.6935 10.4575C18.8996 11.6939 19.2602 12.8787 19.8269 14.0636C20.3935 15.2484 21.1663 16.2787 22.0935 17.206C23.0208 18.1333 24.1541 18.8545 25.3905 19.4211C26.6784 19.9363 28.1208 20.2454 29.6662 20.2454Z" fill="black"/>
<path d="M43.2725 4.84246L45.8483 3.45156V12.003C45.8998 12.8788 46.0543 13.7545 46.3119 14.5273C46.5695 15.3 46.9301 16.0212 47.4452 16.5879C47.9089 17.1545 48.4755 17.6697 49.1967 17.9788C49.8664 18.3394 50.6392 18.4939 51.5149 18.4939C52.5967 18.4939 53.421 18.1333 54.0907 17.4636C54.7603 16.7939 55.1725 15.9182 55.43 14.8879C55.6876 13.8576 55.7391 12.7242 55.6361 11.5394C55.5331 10.3546 55.224 9.22123 54.7604 8.19093C54.2967 7.16063 53.6785 6.28488 52.9058 5.61518C52.1331 4.94549 51.2058 4.58488 50.1755 4.58488C49.8149 4.58488 49.4028 4.6364 49.0422 4.79094C48.6816 4.94549 48.321 5.10003 47.9604 5.30609C47.5998 5.51215 47.2907 5.76973 47.0331 6.0273C46.724 6.28488 46.518 6.59397 46.3634 6.85154C46.7755 5.97579 47.4452 5.25458 48.321 4.68791C49.2483 4.12125 50.227 3.86367 51.2573 3.86367C52.5452 3.86367 53.627 4.06973 54.5543 4.48185C55.4816 4.89397 56.2028 5.46064 56.8209 6.18185C57.3876 6.90306 57.8512 7.67578 58.1088 8.60305C58.3664 9.53032 58.5209 10.4061 58.5209 11.3849C58.5209 12.3636 58.3664 13.2394 58.1088 14.1667C57.8512 15.0424 57.3876 15.8667 56.8209 16.5879C56.2543 17.3091 55.4816 17.8757 54.5543 18.2879C53.627 18.7 52.5452 18.9576 51.3088 18.9576C49.9695 18.9576 48.8361 18.7515 47.9604 18.3909C47.0846 18.0303 46.4149 17.5151 45.8998 16.897V25.706H43.324V4.84246H43.2725Z" fill="black"/>
<path d="M64.5379 8.80911C64.5379 9.78789 64.6924 10.7667 65.0015 11.797C65.3106 12.8273 65.7742 13.703 66.3409 14.5788C66.9075 15.403 67.6287 16.0727 68.453 16.5879C69.2772 17.103 70.2045 17.3606 71.1833 17.3606C72.1105 17.3606 72.9348 17.1545 73.656 16.7939C74.3772 16.3818 74.9954 15.9182 75.5105 15.403C76.0257 14.8879 76.4378 14.3212 76.6954 13.8061C77.0045 13.2909 77.159 12.8788 77.159 12.6212C77.1075 13.2909 76.8499 14.0121 76.4378 14.6818C76.0257 15.3515 75.5105 15.9697 74.8408 16.5363C74.1711 17.103 73.4499 17.5151 72.5742 17.8757C71.6984 18.1848 70.7712 18.3909 69.7924 18.3909C68.453 18.3909 67.2681 18.1848 66.2894 17.7727C65.3106 17.3606 64.4863 16.7939 63.8166 16.0727C63.147 15.3515 62.6833 14.5788 62.3227 13.6515C62.0136 12.7758 61.8591 11.797 61.8591 10.8697C61.8591 9.58183 62.0651 8.50002 62.4773 7.57275C62.8894 6.64548 63.456 5.87276 64.1257 5.25458C64.7954 4.6364 65.5681 4.17276 66.4439 3.91519C67.3197 3.6061 68.1954 3.45156 69.0712 3.45156C69.7409 3.45156 70.4106 3.55458 71.0287 3.76064C71.6984 3.9667 72.2651 4.27579 72.8318 4.68791C73.3984 5.10003 73.8621 5.56367 74.2742 6.07882C74.6863 6.64548 74.9954 7.21214 75.253 7.88184C75.356 8.19093 75.3045 8.4485 75.1499 8.65456C74.9954 8.86062 74.7378 8.96365 74.3772 8.96365H64.5379V8.80911ZM68.556 3.81216C67.8863 3.81216 67.3197 3.91519 66.8045 4.17276C66.2894 4.43034 65.8772 4.73943 65.5681 5.15155C65.2591 5.56367 65.0015 6.07882 64.7954 6.59397C64.6409 7.16063 64.5379 7.72729 64.4863 8.34547H72.9348C72.8318 7.98487 72.6772 7.57275 72.4712 7.0576C72.2651 6.54245 71.956 6.0273 71.5954 5.56367C71.2348 5.10003 70.8227 4.68791 70.3075 4.32731C69.7924 3.9667 69.1742 3.81216 68.556 3.81216Z" fill="black"/>
<path d="M78.5578 4.68757L81.1336 3.29667V18.339H78.5578V4.68757ZM81.4427 5.46029C81.6487 5.1512 81.9578 4.89363 82.2669 4.68757C82.576 4.48151 82.9366 4.27545 83.3487 4.17242C83.7608 4.01787 84.1214 3.91484 84.5336 3.86333C84.9457 3.81181 85.3063 3.7603 85.7184 3.7603C86.9032 3.7603 87.882 3.91484 88.6547 4.17242C89.4275 4.42999 90.0972 4.84211 90.5608 5.30575C91.0759 5.76938 91.4366 6.33605 91.6941 6.95423C91.9517 7.5724 92.1578 8.2421 92.2608 8.91179C92.3638 9.633 92.4153 10.3027 92.4669 11.0754C92.4669 11.7966 92.4669 12.5178 92.4669 13.1875V18.3905H89.8911V12.93C89.8911 12.4148 89.8911 11.8997 89.8911 11.23C89.8911 10.6118 89.8396 9.99361 89.7881 9.32391C89.7366 8.65422 89.582 8.03604 89.4275 7.41786C89.2729 6.79968 89.0154 6.28453 88.7063 5.76938C88.3972 5.30575 87.9335 4.89363 87.4184 4.58454C86.9032 4.27545 86.2335 4.1209 85.4093 4.1209C84.7396 4.1209 84.2245 4.17242 83.7608 4.27545C83.2972 4.37848 82.9366 4.48151 82.6275 4.58454C82.3184 4.68757 82.0608 4.84211 81.9063 4.99666C81.7002 5.20272 81.5457 5.35726 81.4427 5.46029Z" fill="black"/>
</svg>
