<svg width="95" height="15" viewBox="0 0 95 15" fill="none" xmlns="http://www.w3.org/2000/svg">
<path fill-rule="evenodd" clip-rule="evenodd" d="M91.6791 0.533822H95C94.6442 0.830326 94.407 1.18613 94.407 1.66054V13.1649C94.407 13.6393 94.6442 13.9951 95 14.2916H91.6791C92.035 13.9951 92.2722 13.6393 92.2722 13.1649V1.66054C92.2722 1.12683 92.035 0.771025 91.6791 0.533822Z" fill="#333333"/>
<path fill-rule="evenodd" clip-rule="evenodd" d="M14.1136 5.4566C13.5799 4.27058 12.9869 3.14387 11.9788 2.25436C10.9114 1.36484 9.54744 0.771834 8.12422 0.771834C4.38826 0.771834 2.72784 4.15198 2.72784 7.47283C2.72784 10.6751 4.32896 13.9366 7.94632 13.9366C9.42884 13.9366 10.8521 13.2843 11.7416 12.1576V9.54836C11.7416 8.83675 11.5044 8.36234 10.9707 7.94724H14.8252C14.4101 8.42165 14.1729 8.89605 14.1729 9.54836V12.1576C12.3939 13.818 10.2591 14.7668 7.82771 14.7668C3.49875 14.8261 0 11.6832 0 7.29493C0 2.96597 3.43945 0.000922715 7.64981 0.000922715C10.2591 0.000922715 12.3939 0.949737 14.1136 2.90667V5.4566Z" fill="#333333"/>
<path fill-rule="evenodd" clip-rule="evenodd" d="M23.4832 0.533822H27.1005C26.6261 0.889627 26.4482 1.30473 26.4482 1.89774V10.3185C26.4482 12.6312 29.176 13.7579 31.133 13.7579C33.0899 13.7579 35.6398 12.6312 35.6398 10.3778V1.89774C35.6398 1.30473 35.5212 0.948928 35.1061 0.533822H37.0631C36.648 0.948928 36.5294 1.36403 36.5294 1.89774V10.3778C36.5294 13.4021 32.9713 14.5881 30.4807 14.5881C27.9307 14.5881 24.1948 13.4614 24.1948 10.3185V1.89774C24.1355 1.30473 23.8983 0.889627 23.4832 0.533822Z" fill="#333333"/>
<path fill-rule="evenodd" clip-rule="evenodd" d="M59.5974 5.51498C59.123 4.32896 58.53 3.26155 57.5811 2.37203C56.5137 1.42322 55.2091 0.830212 53.7859 0.830212C50.0499 0.830212 48.1523 4.09176 48.1523 7.41261C48.1523 10.7928 50.1092 13.995 53.7859 13.995C56.5137 13.995 58.4707 12.0974 59.5974 9.78464V12.2753C57.937 13.9357 55.7428 14.8252 53.3115 14.8252C48.8639 14.8252 45.5431 11.9788 45.5431 7.41261C45.6024 2.90574 48.8046 0 53.1336 0C55.5649 0 57.8777 0.830212 59.5974 2.49064V5.51498Z" fill="#333333"/>
<path fill-rule="evenodd" clip-rule="evenodd" d="M82.8433 5.51522C82.3689 4.32921 81.7759 3.26179 80.8271 2.37228C79.7596 1.42347 78.455 0.830457 77.0318 0.830457C73.2958 0.830457 71.4575 4.092 71.4575 7.41285C71.4575 10.793 73.4144 13.9952 77.0911 13.9952C79.8189 13.9952 81.7759 12.0976 82.9026 9.78489V12.2755C81.1829 13.9359 79.048 14.8255 76.6167 14.8255C72.1691 14.8255 68.8483 11.979 68.8483 7.41285C68.8483 2.96529 72.0505 0.0595459 76.3795 0.0595459C78.8108 0.0595459 81.1236 0.889758 82.8433 2.55018V5.51522Z" fill="#333333"/>
</svg>
