<svg width="49" height="49" viewBox="0 0 49 49" fill="none" xmlns="http://www.w3.org/2000/svg">
<path d="M28.3833 10.0082C20.3919 7.86689 12.1495 12.6257 10.0082 20.617C7.86697 28.6083 12.6257 36.8507 20.6171 38.992C28.6084 41.1333 36.8508 36.3745 38.9921 28.3832C41.1333 20.3919 36.3746 12.1494 28.3833 10.0082ZM27.7361 12.4235C34.4207 14.2146 38.3679 21.0514 36.5768 27.736C34.7856 34.4206 27.9488 38.3678 21.2642 36.5767C14.5797 34.7855 10.6324 27.9488 12.4236 21.2642C14.2147 14.5796 21.0515 10.6323 27.7361 12.4235ZM20.3601 18.2133C19.36 17.9453 18.3311 18.5393 18.0632 19.5394C17.7952 20.5395 18.3892 21.5683 19.3893 21.8363C20.3894 22.1042 21.4182 21.5102 21.6862 20.5102C21.9541 19.5101 21.3601 18.4813 20.3601 18.2133ZM31.229 21.1256C30.2289 20.8576 29.2001 21.4516 28.9321 22.4517C28.6641 23.4518 29.2581 24.4806 30.2582 24.7486C31.2583 25.0166 32.2871 24.4226 32.5551 23.4225C32.8231 22.4224 32.2291 21.3936 31.229 21.1256ZM17.2646 26.4444L14.8654 27.0959C15.763 30.4257 18.3451 33.2058 21.9114 34.1614C25.4778 35.117 29.1039 34.0004 31.5462 31.5655L29.7941 29.8017C27.9591 31.6308 25.2475 32.4665 22.5586 31.746C19.8697 31.0255 17.9393 28.946 17.2646 26.4444Z" fill="#E0CFBA"/>
</svg>
