<svg width="49" height="49" viewBox="0 0 49 49" fill="none" xmlns="http://www.w3.org/2000/svg">
<path d="M28.3833 10.0082C20.3919 7.86689 12.1495 12.6257 10.0082 20.617C7.86697 28.6083 12.6257 36.8507 20.6171 38.992C28.6084 41.1333 36.8508 36.3745 38.9921 28.3832C41.1333 20.3919 36.3746 12.1494 28.3833 10.0082ZM27.7361 12.4235C34.4207 14.2146 38.3679 21.0514 36.5768 27.736C34.7856 34.4206 27.9488 38.3678 21.2642 36.5767C14.5797 34.7855 10.6324 27.9488 12.4236 21.2642C14.2147 14.5796 21.0515 10.6323 27.7361 12.4235ZM19.476 16.682C18.4759 16.4141 17.4471 17.008 17.1791 18.0081C17.1488 18.1213 17.1291 18.2324 17.1258 18.3579C17.1006 18.6596 17.1528 18.9365 17.2632 19.2037C17.7506 21.0079 19.6695 23.2057 19.6695 23.2057C19.6695 23.2057 23.9093 21.8744 24.4251 19.9497C24.693 18.9496 24.0991 17.9208 23.099 17.6528C22.0989 17.3848 21.0701 17.9788 20.8021 18.9789C21.0701 17.9788 20.4761 16.95 19.476 16.682ZM29.1373 19.2708C28.1372 19.0028 27.1084 19.5968 26.8404 20.5969C26.81 20.7101 26.7904 20.8211 26.7871 20.9466C26.7619 21.2483 26.8141 21.5252 26.9245 21.7924C27.4119 23.5966 29.3308 25.7944 29.3308 25.7944C29.3308 25.7944 32.1491 24.8811 33.4635 23.5041C33.753 23.1974 33.9928 22.8875 34.0863 22.5384C34.3543 21.5383 33.7603 20.5095 32.7602 20.2415C31.7602 19.9736 30.7313 20.5675 30.4634 21.5676C30.7313 20.5675 30.1374 19.5387 29.1373 19.2708ZM17.2646 26.4444L14.8654 27.0959C15.763 30.4257 18.3451 33.2058 21.9114 34.1614C25.4778 35.117 29.1039 34.0004 31.5462 31.5655L29.7941 29.8017C27.9591 31.6308 25.2475 32.4665 22.5586 31.746C19.8697 31.0255 17.9393 28.946 17.2646 26.4444Z" fill="#E0CFBA"/>
</svg>
