<svg width="70" height="11" viewBox="0 0 70 11" fill="none" xmlns="http://www.w3.org/2000/svg">
<path fill-rule="evenodd" clip-rule="evenodd" d="M0 0.170349L1.05422 1.30923V9.68724L0.276732 10.7869L5.07342 10.7999L4.20369 9.79197L4.11145 6.78112L8.73683 6.8073C10.16 6.34913 11.5964 5.39351 11.6755 3.4561C11.6491 1.58414 10.4631 0.39289 9.07945 0.144168L0 0.170349ZM3.95332 0.707065V6.08732L7.5113 6.1135C8.31514 5.48515 8.93449 5.01388 8.90814 3.50846C8.89496 2.29103 8.63141 1.2176 7.43223 0.707065H3.95332Z" fill="#333333"/>
<path fill-rule="evenodd" clip-rule="evenodd" d="M13.8893 0.117811L14.9435 1.2567V9.6347L14.166 10.7343L18.9627 10.7474L18.093 9.73943L18.0007 6.72858H18.0139L22.9687 10.7867L27.0802 10.7605L23.3245 7.64493H20.1882L19.0813 6.74167L22.6129 6.75476C24.0098 6.30968 25.4593 5.35407 25.5252 3.41665C25.4989 1.54469 24.3129 0.340352 22.9292 0.10472L13.8893 0.117811ZM17.8426 0.641437V6.02169L21.4006 6.04787C22.2044 5.41952 22.8238 4.94826 22.7974 3.44283C22.7842 2.2254 22.5207 1.15197 21.3215 0.641437H17.8426Z" fill="#333333"/>
<path fill-rule="evenodd" clip-rule="evenodd" d="M31.0731 0.10472H35.2109L40.6006 9.68707C40.8378 10.4332 41.5362 10.3416 41.9974 10.6558H36.779L37.5565 10.4201L37.5038 9.70016L36.1597 7.63184L31.5738 7.65802L30.5987 9.6478C30.5723 9.87034 30.3088 10.0536 30.5064 10.3285L30.8754 10.6689L28.622 10.6165L29.5972 10.3285L33.3001 2.85375V2.34322L31.7451 0.366533L31.0731 0.10472ZM31.8769 6.9904L33.7745 3.53447L35.7512 6.96421L31.8769 6.9904Z" fill="#333333"/>
<path fill-rule="evenodd" clip-rule="evenodd" d="M59.0757 0.117911H63.2135L68.6032 9.71335C68.8404 10.4595 69.5388 10.3679 70 10.6821H64.7816L65.5591 10.4464L65.5064 9.72644L64.1623 7.67121L59.5764 7.69739L58.6013 9.68717C58.5749 9.90971 58.3114 10.093 58.5091 10.3679L58.878 10.7082L56.6246 10.6559L57.5998 10.3679L61.3027 2.89313V2.38259L59.7346 0.379723L59.0757 0.117911ZM59.8795 7.00359L61.7771 3.54766L63.7538 6.9774L59.8795 7.00359Z" fill="#333333"/>
<path fill-rule="evenodd" clip-rule="evenodd" d="M43.4337 0L50.8132 0.0392719C53.1852 0.575988 54.7007 1.9636 55.1619 4.38536L55.1487 6.28351C54.7139 8.44346 53.2907 9.93579 50.8001 10.6951L43.4074 10.7081V10.4856C44.5275 10.4071 44.6197 10.2762 44.6197 9.6478V1.02107C44.6065 0.549807 44.5143 0.248722 43.4205 0.222541L43.4337 0ZM47.6242 0.733076L47.6111 10.0667C48.5862 10.0667 49.4296 10.1583 49.904 9.9227C50.9846 9.45144 51.4853 8.71837 51.538 8.03765L51.5117 2.53958C51.5117 1.66251 50.5102 1.03416 49.9435 0.877073C49.5218 0.719985 48.7048 0.719985 47.6242 0.733076Z" fill="#333333"/>
</svg>
