<svg width="30" height="30" viewBox="0 0 30 30" fill="none" xmlns="http://www.w3.org/2000/svg">
<path d="M8.98446 2.98645C8.71958 2.99059 8.46717 3.09965 8.28262 3.28969C8.09807 3.47974 7.99645 3.73524 8.00008 4.00012V8.00012H4.00008C3.86757 7.99825 3.73601 8.02273 3.61304 8.07214C3.49007 8.12156 3.37815 8.19492 3.28378 8.28796C3.18941 8.38101 3.11447 8.49188 3.06333 8.61414C3.01218 8.73639 2.98584 8.8676 2.98584 9.00012C2.98584 9.13265 3.01218 9.26385 3.06333 9.38611C3.11447 9.50837 3.18941 9.61924 3.28378 9.71228C3.37815 9.80533 3.49007 9.87869 3.61304 9.9281C3.73601 9.97752 3.86757 10.002 4.00008 10.0001H6.62899C6.51507 10.1913 6.46816 10.415 6.49568 10.6358C6.5232 10.8566 6.62358 11.0619 6.78092 11.2193C6.93827 11.3766 7.14361 11.477 7.36442 11.5045C7.58524 11.532 7.80893 11.4851 8.00008 11.3712V20.0001H4.00008C3.86757 19.9982 3.73601 20.0227 3.61304 20.0721C3.49007 20.1216 3.37815 20.1949 3.28378 20.288C3.18941 20.381 3.11447 20.4919 3.06333 20.6141C3.01218 20.7364 2.98584 20.8676 2.98584 21.0001C2.98584 21.1326 3.01218 21.2639 3.06333 21.3861C3.11447 21.5084 3.18941 21.6192 3.28378 21.7123C3.37815 21.8053 3.49007 21.8787 3.61304 21.9281C3.73601 21.9775 3.86757 22.002 4.00008 22.0001H6.62899C6.51507 22.1913 6.46816 22.415 6.49568 22.6358C6.5232 22.8566 6.62358 23.0619 6.78092 23.2193C6.93827 23.3766 7.14361 23.477 7.36442 23.5045C7.58524 23.532 7.80893 23.4851 8.00008 23.3712V26.0001C7.99821 26.1326 8.02269 26.2642 8.0721 26.3872C8.12152 26.5101 8.19488 26.6221 8.28792 26.7164C8.38097 26.8108 8.49184 26.8857 8.6141 26.9369C8.73635 26.988 8.86756 27.0144 9.00008 27.0144C9.13261 27.0144 9.26381 26.988 9.38607 26.9369C9.50833 26.8857 9.6192 26.8108 9.71224 26.7164C9.80529 26.6221 9.87865 26.5101 9.92806 26.3872C9.97748 26.2642 10.002 26.1326 10.0001 26.0001V22.0001H18.629C18.5151 22.1913 18.4682 22.415 18.4957 22.6358C18.5232 22.8566 18.6236 23.0619 18.7809 23.2193C18.9383 23.3766 19.1436 23.477 19.3644 23.5045C19.5852 23.532 19.8089 23.4851 20.0001 23.3712V26.0001C19.9982 26.1326 20.0227 26.2642 20.0721 26.3872C20.1215 26.5101 20.1949 26.6221 20.2879 26.7164C20.381 26.8108 20.4918 26.8857 20.6141 26.9369C20.7364 26.988 20.8676 27.0144 21.0001 27.0144C21.1326 27.0144 21.2638 26.988 21.3861 26.9369C21.5083 26.8857 21.6192 26.8108 21.7122 26.7164C21.8053 26.6221 21.8786 26.5101 21.9281 26.3872C21.9775 26.2642 22.002 26.1326 22.0001 26.0001V22.0001H26.0001C26.1326 22.002 26.2642 21.9775 26.3871 21.9281C26.5101 21.8787 26.622 21.8053 26.7164 21.7123C26.8108 21.6192 26.8857 21.5084 26.9368 21.3861C26.988 21.2639 27.0143 21.1326 27.0143 21.0001C27.0143 20.8676 26.988 20.7364 26.9368 20.6141C26.8857 20.4919 26.8108 20.381 26.7164 20.288C26.622 20.1949 26.5101 20.1216 26.3871 20.0721C26.2642 20.0227 26.1326 19.9982 26.0001 20.0001H23.3692C23.4605 19.8462 23.5088 19.6706 23.5091 19.4917C23.5094 19.3127 23.4616 19.137 23.3709 18.9827C23.2801 18.8285 23.1496 18.7015 22.993 18.6149C22.8364 18.5283 22.6594 18.4853 22.4806 18.4904C22.3112 18.4951 22.1459 18.5429 22.0001 18.629V10.0001H26.0001C26.1326 10.002 26.2642 9.97752 26.3871 9.9281C26.5101 9.87869 26.622 9.80533 26.7164 9.71228C26.8108 9.61924 26.8857 9.50837 26.9368 9.38611C26.988 9.26385 27.0143 9.13265 27.0143 9.00012C27.0143 8.8676 26.988 8.73639 26.9368 8.61414C26.8857 8.49188 26.8108 8.38101 26.7164 8.28796C26.622 8.19492 26.5101 8.12156 26.3871 8.07214C26.2642 8.02273 26.1326 7.99825 26.0001 8.00012H23.3692C23.4605 7.8462 23.5088 7.6706 23.5091 7.49165C23.5094 7.3127 23.4616 7.13695 23.3709 6.98274C23.2801 6.82852 23.1496 6.70148 22.993 6.61488C22.8364 6.52827 22.6594 6.48527 22.4806 6.49036C22.3112 6.49515 22.1459 6.54286 22.0001 6.62903V4.00012C22.0019 3.86633 21.9769 3.73354 21.9265 3.6096C21.8761 3.48566 21.8013 3.37309 21.7066 3.27857C21.6119 3.18405 21.4992 3.10949 21.3751 3.05932C21.2511 3.00914 21.1182 2.98436 20.9845 2.98645C20.7196 2.99059 20.4672 3.09965 20.2826 3.28969C20.0981 3.47974 19.9965 3.73524 20.0001 4.00012V8.00012H11.3692C11.4605 7.8462 11.5088 7.6706 11.5091 7.49165C11.5094 7.3127 11.4616 7.13695 11.3709 6.98274C11.2801 6.82852 11.1496 6.70148 10.993 6.61488C10.8364 6.52827 10.6594 6.48527 10.4806 6.49036C10.3112 6.49515 10.1459 6.54286 10.0001 6.62903V4.00012C10.0019 3.86633 9.97688 3.73354 9.92647 3.6096C9.87605 3.48566 9.80128 3.37309 9.70657 3.27857C9.61187 3.18405 9.49916 3.10949 9.37512 3.05932C9.25109 3.00914 9.11824 2.98436 8.98446 2.98645ZM10.0001 10.0001H18.6309C18.5177 10.1911 18.4712 10.4143 18.4988 10.6347C18.5264 10.855 18.6265 11.0599 18.7834 11.217C18.9403 11.3741 19.1451 11.4745 19.3653 11.5025C19.5856 11.5304 19.8089 11.4842 20.0001 11.3712V20.0001H11.3692C11.4605 19.8462 11.5088 19.6706 11.5091 19.4917C11.5094 19.3127 11.4616 19.137 11.3709 18.9827C11.2801 18.8285 11.1496 18.7015 10.993 18.6149C10.8364 18.5283 10.6594 18.4853 10.4806 18.4904C10.3112 18.4951 10.1459 18.5429 10.0001 18.629V10.0001Z" fill="black"/>
</svg>
