<svg width="30" height="30" viewBox="0 0 30 30" fill="none" xmlns="http://www.w3.org/2000/svg">
<path d="M14.9845 3.00008C14.6873 3.00326 14.3978 3.09462 14.1527 3.26257C13.9075 3.43052 13.7178 3.6675 13.6075 3.94344L7.6075 18.9434C7.59996 18.9622 7.5928 18.9811 7.58602 19.0001H7.00008C6.86757 18.9982 6.73601 19.0227 6.61304 19.0721C6.49007 19.1215 6.37815 19.1949 6.28378 19.2879C6.18941 19.381 6.11447 19.4918 6.06333 19.6141C6.01218 19.7363 5.98584 19.8676 5.98584 20.0001C5.98584 20.1326 6.01218 20.2638 6.06333 20.3861C6.11447 20.5083 6.18941 20.6192 6.28378 20.7122C6.37815 20.8053 6.49007 20.8786 6.61304 20.9281C6.73601 20.9775 6.86757 21.002 7.00008 21.0001H8.67586C8.88063 21.0434 9.09219 21.0434 9.29696 21.0001H11.0001C11.1326 21.002 11.2642 20.9775 11.3871 20.9281C11.5101 20.8786 11.622 20.8053 11.7164 20.7122C11.8108 20.6192 11.8857 20.5083 11.9368 20.3861C11.988 20.2638 12.0143 20.1326 12.0143 20.0001C12.0143 19.8676 11.988 19.7363 11.9368 19.6141C11.8857 19.4918 11.8108 19.381 11.7164 19.2879C11.622 19.1949 11.5101 19.1215 11.3871 19.0721C11.2642 19.0227 11.1326 18.9982 11.0001 19.0001H10.8145L12.0157 16.0001H17.9845L19.1856 19.0001H19.0001C18.8676 18.9982 18.736 19.0227 18.613 19.0721C18.4901 19.1215 18.3781 19.1949 18.2838 19.2879C18.1894 19.381 18.1145 19.4918 18.0633 19.6141C18.0122 19.7363 17.9858 19.8676 17.9858 20.0001C17.9858 20.1326 18.0122 20.2638 18.0633 20.3861C18.1145 20.5083 18.1894 20.6192 18.2838 20.7122C18.3781 20.8053 18.4901 20.8786 18.613 20.9281C18.736 20.9775 18.8676 21.002 19.0001 21.0001H20.6934C20.9007 21.0445 21.1151 21.0445 21.3223 21.0001H23.0001C23.1326 21.002 23.2642 20.9775 23.3871 20.9281C23.5101 20.8786 23.622 20.8053 23.7164 20.7122C23.8108 20.6192 23.8857 20.5083 23.9368 20.3861C23.988 20.2638 24.0143 20.1326 24.0143 20.0001C24.0143 19.8676 23.988 19.7363 23.9368 19.6141C23.8857 19.4918 23.8108 19.381 23.7164 19.2879C23.622 19.1949 23.5101 19.1215 23.3871 19.0721C23.2642 19.0227 23.1326 18.9982 23.0001 19.0001H22.4141C22.4074 18.9811 22.4002 18.9622 22.3927 18.9434L16.3927 3.94344C16.2804 3.66255 16.0859 3.42216 15.8346 3.25381C15.5833 3.08546 15.2869 2.99702 14.9845 3.00008ZM15.0001 8.53914L17.1837 14.0001H12.8165L15.0001 8.53914ZM6.00008 24.0001V27.0001H24.0001V24.0001H6.00008Z" fill="black"/>
</svg>
