<svg width="99" height="13" viewBox="0 0 99 13" fill="none" xmlns="http://www.w3.org/2000/svg">
<path fill-rule="evenodd" clip-rule="evenodd" d="M22.3567 2.87202L22.7509 5.23721H22.5256C22.1877 3.77305 20.8925 3.15359 19.4283 3.15359C19.2031 3.15359 18.9778 3.15359 18.6962 3.26622V7.32083H19.2594C20.442 7.32083 21.1177 6.87032 21.1177 5.91298H21.343V9.23551H21.1741C21.0614 8.50343 20.8362 7.6024 19.3157 7.6024H18.7526V11.3754C18.7526 11.9949 19.0341 12.3328 19.9351 12.3328V12.558H15.9369V12.3328C16.8379 12.3328 17.1194 11.9949 17.1194 11.3754V4.05462C17.1194 3.49148 16.7816 3.09728 15.8805 3.09728V2.87202H22.3567Z" fill="#333333"/>
<path fill-rule="evenodd" clip-rule="evenodd" d="M30.4096 2.87202L30.8038 5.23721H30.5785C30.2406 3.77305 28.9454 3.15359 27.4813 3.15359C27.256 3.15359 27.0307 3.15359 26.7492 3.26622V7.32083H27.3123C28.4949 7.32083 29.1707 6.87032 29.1707 5.91298H29.3959V9.23551H29.227C29.1144 8.50343 28.8891 7.6024 27.3686 7.6024H26.8055V11.3754C26.8055 11.9949 27.0871 12.3328 27.9881 12.3328V12.558H23.9898V12.3328C24.8908 12.3328 25.1724 11.9949 25.1724 11.3754V4.05462C25.1724 3.49148 24.8345 3.09728 23.9335 3.09728V2.87202H30.4096Z" fill="#333333"/>
<path fill-rule="evenodd" clip-rule="evenodd" d="M13.9659 2.87202V3.09728C13.2901 3.09728 12.8959 3.43516 12.8959 4.05462V11.3191C12.8959 11.9949 13.3464 12.2765 13.9659 12.2765V12.5017H10.1928V12.2765C10.8686 12.2202 11.2628 11.9386 11.2628 11.3191V4.05462C11.2628 3.43516 10.8686 3.09728 10.1928 3.09728V2.87202H13.9659Z" fill="#333333"/>
<path fill-rule="evenodd" clip-rule="evenodd" d="M9.06656 0.225268L9.46076 3.1536H9.29181C8.72867 1.63312 7.65871 0.619466 5.68772 0.619466V10.9249C5.68772 12.0512 6.30717 12.3891 6.98294 12.3891V12.6144H2.47782V12.3891C3.09727 12.3891 3.88567 12.0512 3.88567 10.9249V0.563152C1.85836 0.563152 0.901024 1.52049 0.168942 3.1536H0L0.337884 0.225268H9.06656Z" fill="#333333"/>
<path fill-rule="evenodd" clip-rule="evenodd" d="M64.0854 9.40444C64.0854 10.9249 65.1553 12.0512 66.7321 12.0512C67.4079 12.0512 68.1963 11.7133 68.7594 11.0939L65.6059 7.09556C64.8175 7.26451 64.0854 8.10922 64.0854 9.40444ZM68.3652 3.37884C68.3652 2.13993 67.8021 1.52047 66.7321 1.52047C65.6622 1.52047 65.0427 2.13993 65.0427 3.15358C65.0427 4.33618 66.6195 5.91297 66.6195 5.91297C67.8584 5.2372 68.3652 4.50512 68.3652 3.37884ZM66.8448 6.19454L69.5478 9.57338C69.5478 9.57338 69.8294 9.01024 69.8857 8.50341C69.8857 7.88396 69.5478 7.6587 69.041 7.54608V7.37713H71.9693C71.9693 7.37713 72.0257 7.54608 71.9693 7.54608C71.4062 7.6587 71.012 7.82765 70.6178 8.10922C70.2799 8.50341 70.111 8.8413 69.7731 9.74232L71.012 11.2628C71.5751 11.8823 72.2509 12.2201 73.0393 12.2765V12.5017H69.8294V12.2765L68.9284 11.2065C68.1963 11.9386 66.9574 12.6143 65.7748 12.6143C63.8601 12.6143 62.6212 11.5444 62.6212 10.0802C62.6212 8.4471 64.1417 7.43345 65.3243 6.64505C65.3243 6.64505 64.0291 5.18089 64.0291 3.82935C64.0291 2.30887 65.2117 1.12628 66.7884 1.12628C68.1963 1.12628 69.3226 2.13993 69.3226 3.37884C69.3226 4.89932 67.6895 5.51877 66.8448 6.19454Z" fill="#333333"/>
<path fill-rule="evenodd" clip-rule="evenodd" d="M86.3294 0L86.442 3.88567H86.2168C85.8226 1.68942 84.3584 0.450512 82.5563 0.450512C80.3601 0.450512 78.8396 2.98464 78.8396 6.4198C78.8396 10.6434 80.529 12.3891 82.8379 12.3891C85.2594 12.3891 86.2168 10.1365 86.442 8.55973H86.6673V10.2492C86.2731 10.9812 85.0342 12.6143 82.5 12.6143C79.2901 12.6143 76.756 9.96758 76.756 6.4198C76.756 3.2099 79.5717 0.225256 82.5 0.225256C84.1895 0.225256 84.64 0.957338 85.3157 0.957338C85.8226 0.957338 86.0478 0.619454 86.0478 0H86.3294V0Z" fill="#333333"/>
<path fill-rule="evenodd" clip-rule="evenodd" d="M98.099 10.756C98.6058 10.756 99 11.1502 99 11.657C99 12.1638 98.6058 12.5017 98.099 12.5017C97.5922 12.5017 97.198 12.1638 97.198 11.657C97.198 11.1502 97.5922 10.756 98.099 10.756Z" fill="#333333"/>
<path fill-rule="evenodd" clip-rule="evenodd" d="M89.2577 7.54607C89.2577 10.5307 90.4403 12.3891 92.2424 12.3891C94.1007 12.3891 95.2833 10.6997 95.2833 7.54607C95.2833 4.67405 94.2697 3.09726 92.2987 3.04095C90.2714 2.98463 89.2577 4.89931 89.2577 7.54607ZM92.2424 2.81569C95.0018 2.81569 97.3106 4.89931 97.3106 7.71501C97.3106 10.4181 95.1144 12.558 92.2987 12.558C89.5393 12.558 87.2304 10.3618 87.2304 7.71501C87.2304 5.06825 89.483 2.81569 92.2424 2.81569Z" fill="#333333"/>
<path fill-rule="evenodd" clip-rule="evenodd" d="M34.1826 4.89929L35.8157 8.89758H32.5495L34.1826 4.89929ZM39.5888 12.3327C39.2509 12.3327 38.9693 11.9949 38.8004 11.7696C38.6877 11.5443 34.9147 2.36516 34.9147 2.36516L31.4795 10.7559C31.0853 11.8259 30.5222 12.3327 29.7901 12.3327V12.558H32.6058V12.3327C32.0427 12.2764 31.6485 11.9949 31.6485 11.6007C31.6485 11.2628 32.5495 9.12284 32.5495 9.12284H35.9284C35.9284 9.12284 36.8857 11.1501 36.8857 11.6007C36.942 11.9385 36.3789 12.3327 35.872 12.3327V12.558H39.5888V12.3327Z" fill="#333333"/>
<path fill-rule="evenodd" clip-rule="evenodd" d="M41.1092 10.8686C41.1092 11.7696 40.5461 12.1638 39.9266 12.3328V12.558H42.7423V12.3328C41.9539 12.1638 41.5034 11.6007 41.5034 10.8686V4.56145L48.0921 12.727V4.84302C48.0921 3.71673 48.7116 3.04097 49.4437 3.04097V2.87202H46.2901V3.04097C47.1911 3.32254 47.8106 3.82936 47.8106 4.89933V9.74233L42.2918 2.87202H39.7013V3.04097C40.8276 3.09728 41.1092 3.9983 41.1092 4.22356V10.8686Z" fill="#333333"/>
<path fill-rule="evenodd" clip-rule="evenodd" d="M49.7816 3.09728C50.1758 3.09728 50.2885 3.09728 50.57 3.66042C50.57 3.66042 53.5547 8.44711 53.5547 8.50343V11.3754C53.5547 11.9949 52.9915 12.3328 52.2031 12.3891V12.558H56.3704V12.3891C55.6383 12.3328 55.1315 11.9949 55.1315 11.3754V7.9966C55.1315 7.9966 57.0461 4.56145 57.2151 4.22356C57.6656 3.49148 58.285 3.04097 59.0734 2.98465V2.87202H55.6946L55.7509 2.98465C56.8209 2.98465 57.1025 3.9983 56.7083 4.61776L54.9062 7.88397L52.7663 4.11093C52.4284 3.54779 52.8789 2.98465 53.6673 2.98465V2.87202H49.7816V3.09728Z" fill="#333333"/>
</svg>
