<svg width="20" height="20" viewBox="0 0 20 20" fill="none" xmlns="http://www.w3.org/2000/svg">
<path d="M5.83165 0C2.61585 0 0 2.61827 0 5.8349V14.1682C0 17.384 2.61827 19.9998 5.8349 19.9998H14.1681C17.3839 19.9998 19.9998 17.3815 19.9998 14.1649V5.83165C19.9998 2.61585 17.3815 0 14.1649 0H5.83165ZM15.8332 3.3333C16.2932 3.3333 16.6665 3.70663 16.6665 4.16662C16.6665 4.62662 16.2932 4.99995 15.8332 4.99995C15.3732 4.99995 14.9998 4.62662 14.9998 4.16662C14.9998 3.70663 15.3732 3.3333 15.8332 3.3333ZM9.9999 4.99995C12.7574 4.99995 14.9998 7.24243 14.9998 9.9999C14.9998 12.7574 12.7574 14.9998 9.9999 14.9998C7.24243 14.9998 4.99995 12.7574 4.99995 9.9999C4.99995 7.24243 7.24243 4.99995 9.9999 4.99995ZM9.9999 6.6666C9.11585 6.6666 8.26801 7.01778 7.6429 7.6429C7.01778 8.26801 6.6666 9.11585 6.6666 9.9999C6.6666 10.8839 7.01778 11.7318 7.6429 12.3569C8.26801 12.982 9.11585 13.3332 9.9999 13.3332C10.8839 13.3332 11.7318 12.982 12.3569 12.3569C12.982 11.7318 13.3332 10.8839 13.3332 9.9999C13.3332 9.11585 12.982 8.26801 12.3569 7.6429C11.7318 7.01778 10.8839 6.6666 9.9999 6.6666Z" fill="#333333"/>
</svg>
