<svg width="16" height="16" viewBox="0 0 16 16" fill="none" xmlns="http://www.w3.org/2000/svg">
<path d="M0 7.60912C0 6.61889 0.156352 5.68078 0.469056 4.74267C0.781759 3.80456 1.30293 3.0228 1.98045 2.29316C2.65798 1.56352 3.49185 1.04234 4.48208 0.625405C5.47231 0.208467 6.67101 0 8.02605 0C9.3811 0 10.5798 0.208467 11.57 0.625405C12.5603 1.04234 13.3941 1.61563 14.0716 2.34528C14.7492 3.07492 15.2182 3.85667 15.5309 4.79478C15.8436 5.68078 16 6.67101 16 7.60912C16 8.59934 15.8436 9.53745 15.5309 10.4756C15.2182 11.4137 14.6971 12.1954 14.0195 12.9251C13.342 13.6547 12.5081 14.1759 11.5179 14.5928C10.5277 15.0098 9.32899 15.2182 8.02605 15.2182C6.72312 15.2182 5.47231 15.0098 4.48208 14.5928C3.49185 14.1759 2.65798 13.6026 1.98045 12.873C1.30293 12.1433 0.833877 11.3616 0.469056 10.4234C0.156352 9.53745 0 8.59934 0 7.60912ZM6.671 0.625405C5.78501 0.625405 5.05537 0.833875 4.48208 1.25081C3.90879 1.66775 3.43973 2.18892 3.12703 2.81433C2.81433 3.43974 2.65798 4.22149 2.55375 5.05537C2.50163 5.88925 2.55375 6.77524 2.7101 7.66123C2.86645 8.54723 3.12703 9.3811 3.54397 10.2671C3.90879 11.101 4.37784 11.8306 4.95113 12.5081C5.52442 13.1335 6.14984 13.7068 6.87948 14.0717C7.60912 14.4886 8.39087 14.6971 9.27687 14.6971C10.1629 14.6971 10.8404 14.4886 11.4137 14.0717C11.987 13.6547 12.4039 13.1335 12.7166 12.5081C13.0293 11.8827 13.1857 11.101 13.2899 10.2671C13.342 9.43322 13.2899 8.54723 13.1335 7.66123C12.9772 6.77524 12.6645 5.94136 12.2997 5.05537C11.9348 4.22149 11.4658 3.49185 10.8925 2.81433C10.3192 2.18892 9.69381 1.61563 8.96417 1.25081C8.23453 0.885992 7.557 0.625405 6.671 0.625405Z" fill="black"/>
</svg>
