<svg width="16" height="23" viewBox="0 0 16 23" fill="none" xmlns="http://www.w3.org/2000/svg">
<path d="M0 1.43751L2.66205 0V8.83801C2.71529 9.74311 2.87502 10.6482 3.14122 11.4468C3.40743 12.2454 3.78011 12.9908 4.31252 13.5765C4.79169 14.1621 5.37734 14.6945 6.12272 15.014C6.81485 15.3867 7.61347 15.5464 8.51857 15.5464C9.63663 15.5464 10.4885 15.1737 11.1806 14.4816C11.8728 13.7894 12.2987 12.8843 12.5649 11.8195C12.8311 10.7547 12.8843 9.58339 12.7778 8.35884C12.6714 7.1343 12.3519 5.963 11.8728 4.89818C11.3936 3.83336 10.7547 2.92826 9.95607 2.23612C9.15746 1.54399 8.19912 1.1713 7.1343 1.1713C6.76161 1.1713 6.33568 1.22454 5.96299 1.38427C5.59031 1.54399 5.21762 1.70371 4.84493 1.91668C4.47225 2.12964 4.1528 2.39585 3.8866 2.66205C3.56715 2.92826 3.35419 3.2477 3.19446 3.51391C3.62039 2.60881 4.31253 1.86344 5.21762 1.27778C6.17596 0.692133 7.18754 0.425928 8.25236 0.425928C9.58339 0.425928 10.7014 0.638893 11.6598 1.06482C12.6181 1.49075 13.3635 2.0764 14.0024 2.82178C14.588 3.56715 15.0672 4.36576 15.3334 5.3241C15.5996 6.28244 15.7593 7.18754 15.7593 8.19912C15.7593 9.2107 15.5996 10.1158 15.3334 11.0741C15.0672 11.9792 14.588 12.8311 14.0024 13.5765C13.4167 14.3218 12.6181 14.9075 11.6598 15.3334C10.7014 15.7593 9.58339 16.0256 8.3056 16.0256C6.92133 16.0256 5.75003 15.8126 4.84493 15.4399C3.93984 15.0672 3.2477 14.5348 2.71529 13.8959V23.0001H0.0532402V1.43751H0Z" fill="black"/>
</svg>
