<svg width="7" height="23" viewBox="0 0 7 23" fill="none" xmlns="http://www.w3.org/2000/svg">
<path d="M4.75357 7.75698V23.0001H2.14344V9.16646L4.75357 7.75698Z" fill="black"/>
<path d="M1.42796 3.26678C1.01651 3.4831 0 3.57924 0 3.57924V3.96381C0 3.96381 1.01651 4.05995 1.42796 4.27627C1.8152 4.49259 2.15403 4.78102 2.39606 5.16559C2.66229 5.55015 2.83171 5.98279 2.95272 6.48754C3.07374 6.99228 3.12214 7.42732 3.12214 7.42732H3.46098C3.46098 7.42732 3.58042 6.73731 3.6304 6.48754C3.75141 5.98279 3.94503 5.55015 4.18706 5.16559C4.42908 4.78102 4.74372 4.49259 5.15517 4.27627C5.56661 4.05995 6.58312 3.96381 6.58312 3.96381V3.57924C6.58312 3.57924 5.56661 3.4831 5.15517 3.26678C4.76792 3.05046 4.42908 2.76204 4.18706 2.37747C3.92083 1.9929 3.75141 1.56027 3.6304 1.05552C3.57488 0.758004 3.46098 0 3.46098 0H3.12214C3.12214 0 3.00964 0.863293 2.95272 1.05552C2.83171 1.56027 2.63809 1.9929 2.39606 2.37747C2.15403 2.76204 1.8394 3.05046 1.42796 3.26678Z" fill="black"/>
</svg>
