<svg width="15" height="15" viewBox="0 0 15 15" fill="none" xmlns="http://www.w3.org/2000/svg">
<path d="M11.4828 8.94829C11.4828 8.43105 11.4828 7.9138 11.4828 7.39656C11.4828 6.82759 11.431 6.31035 11.431 5.74139C11.2241 6.2069 10.8621 6.51725 10.3448 6.82759C9.8276 7.08622 9.25863 7.34483 8.63794 7.55173C8.01725 7.75863 7.34483 7.96552 6.67242 8.1207C6 8.32759 5.32759 8.53449 4.75863 8.84484C4.18966 9.15518 3.72414 9.51725 3.36207 9.98277C3 10.4483 2.79311 11.069 2.79311 11.7931C2.79311 12.6207 3 13.1897 3.4138 13.6035C3.82759 14.0173 4.39655 14.2242 5.12069 14.2242C5.84483 14.2242 6.77587 14.0173 7.75863 13.5517C8.79311 13.0862 9.93104 12.4138 11.1724 11.5345C10.8621 11.8448 10.4483 12.2069 9.93104 12.6207C9.4138 13.0345 8.79311 13.3966 8.1207 13.7586C7.44828 14.1207 6.77587 14.4311 6.10345 14.6379C5.37932 14.8966 4.75862 15 4.18966 15C3.72414 15 3.2069 14.9483 2.74138 14.8448C2.27586 14.7414 1.81035 14.5862 1.39655 14.3276C0.982759 14.069 0.672414 13.7586 0.413793 13.3448C0.155172 12.9311 0 12.3621 0 11.6897C0 11.1207 0.155172 10.6035 0.465518 10.1897C0.775863 9.77587 1.18966 9.4138 1.7069 9.10346C2.22414 8.79311 2.84483 8.53449 3.51724 8.32759C4.18966 8.1207 4.86207 7.9138 5.58621 7.75863C6.31035 7.55173 6.98277 7.39656 7.65518 7.24139C8.32759 7.08621 8.94828 6.87932 9.46553 6.67242C10.0345 6.46553 10.4483 6.2069 10.8104 5.94828C11.1207 5.63794 11.3276 5.32759 11.3793 4.9138C11.2759 4.29311 11.1724 3.72414 10.9655 3.15518C10.8104 2.58621 10.5517 2.12069 10.2414 1.7069C9.93104 1.2931 9.51725 0.98276 9.05173 0.72414C8.58622 0.465519 7.96552 0.413793 7.29311 0.413793C6.25863 0.465517 5.48276 0.568966 4.96552 0.775863C4.44828 0.98276 4.08621 1.24138 3.82759 1.55173C3.56897 1.86207 3.51724 2.17242 3.51724 2.53449C3.51724 2.89656 3.51724 3.2069 3.51724 3.51724C3.51724 3.87931 3.4138 4.13794 3.2069 4.34483C3 4.55173 2.74138 4.60345 2.43104 4.60345C2.12069 4.60345 1.81035 4.50001 1.5 4.24138C1.18966 3.98276 1.08621 3.67242 1.08621 3.25862C1.08621 2.68966 1.34483 2.17242 1.81035 1.75862C2.27586 1.34483 2.89655 0.98276 3.56897 0.72414C4.24138 0.465519 4.96552 0.258621 5.68966 0.155172C6.4138 0.0517238 6.98276 0 7.44828 0C8.89656 0 10.0862 0.206897 10.9655 0.620691C11.8448 1.03448 12.5173 1.60345 12.9828 2.27587C13.4483 2.94828 13.7586 3.77587 13.9138 4.7069C14.069 5.63794 14.1207 6.56897 14.1207 7.60346V14.6897H11.5345V8.94829H11.4828Z" fill="black"/>
</svg>
