<svg width="14" height="22" viewBox="0 0 14 22" fill="none" xmlns="http://www.w3.org/2000/svg">
<path d="M0 1.4L2.5926 0V21.6223H0V1.4ZM2.90371 8.60742C3.11111 8.29631 3.42223 8.03705 3.73334 7.82964C4.04445 7.62223 4.40742 7.41482 4.82223 7.31112C5.23705 7.20742 5.60001 7.05186 6.01482 7.00001C6.42964 6.94816 6.7926 6.89631 7.20742 6.89631C8.40001 6.89631 9.3852 7.05186 10.163 7.31112C10.9408 7.57038 11.6148 7.9852 12.0815 8.45186C12.6 8.91853 12.963 9.4889 13.2222 10.1111C13.4815 10.7333 13.6889 11.4074 13.7926 12.0815C13.8963 12.8074 13.9482 13.4815 14 14.2593C14 14.9852 14 15.7111 14 16.3852V21.6223H11.4074V16.126C11.4074 15.6074 11.4074 15.0889 11.4074 14.4667C11.4074 13.8445 11.3556 13.2222 11.3037 12.5482C11.2519 11.8741 11.0963 11.2519 10.9408 10.6296C10.7852 10.0074 10.5259 9.4889 10.2148 8.97038C9.90372 8.50372 9.43705 8.0889 8.91853 7.82964C8.40001 7.51853 7.72594 7.36297 6.89631 7.36297C6.22223 7.36297 5.70371 7.41483 5.23704 7.51853C4.77038 7.62223 4.40741 7.72594 4.0963 7.82964C3.78519 7.93334 3.52593 8.0889 3.37038 8.24446C3.16297 8.40001 3.00741 8.50372 2.90371 8.60742Z" fill="black"/>
</svg>
