<svg width="24" height="24" viewBox="0 0 24 24" fill="none" xmlns="http://www.w3.org/2000/svg">
<path d="M12 3.2002C8.65118 3.2002 4.30466 4.03926 4.30466 4.03926L4.29373 4.05176C2.76851 4.29569 1.59998 5.6063 1.59998 7.2002V12.0002V12.0018V16.8002V16.8018C1.60146 17.563 1.87427 18.2988 2.36941 18.8769C2.86456 19.4551 3.5496 19.8379 4.30154 19.9564L4.30466 19.9611C4.30466 19.9611 8.65118 20.8018 12 20.8018C15.3488 20.8018 19.6953 19.9611 19.6953 19.9611L19.6968 19.9596C20.4496 19.8413 21.1354 19.4582 21.631 18.8793C22.1265 18.3005 22.3992 17.5638 22.4 16.8018V16.8002V12.0018V12.0002V7.2002C22.3989 6.4387 22.1262 5.70256 21.631 5.12404C21.1359 4.54553 20.4506 4.16256 19.6984 4.04395L19.6953 4.03926C19.6953 4.03926 15.3488 3.2002 12 3.2002ZM9.59998 8.31895L16 12.0002L9.59998 15.6814V8.31895Z" fill="#333333"/>
</svg>
